<svg xmlns="http://www.w3.org/2000/svg" viewBox="10069.229 -102 47.771 47.771">
  <defs>
    <style>
      .cls-1 {
        fill: #a7a7a7;
      }

      .cls-2 {
        fill: #fff;
      }
    </style>
  </defs>
  <g id="enlace_icn" transform="translate(9255.229 -1246)">
    <ellipse id="Ellipse_10" data-name="Ellipse 10" class="cls-1" cx="23.886" cy="23.886" rx="23.886" ry="23.886" transform="translate(814 1144)"/>
    <g id="_45315" data-name="45315" transform="translate(825.109 1155.774)">
      <g id="Group_84" data-name="Group 84" transform="translate(0 0.114)">
        <path id="Path_342" data-name="Path 342" class="cls-2" d="M175.521,2.019a6.556,6.556,0,0,0-9.24,0l-4.989,4.989a7.474,7.474,0,0,1,5.188.4l2.594-2.594a2.585,2.585,0,0,1,3.656,3.656l-3.26,3.26-2.143,2.143a2.587,2.587,0,0,1-3.657,0l-2.792,2.792a6.368,6.368,0,0,0,2.2,1.441,6.6,6.6,0,0,0,6.5-.955,4.534,4.534,0,0,0,.54-.486l3.368-3.368,2.035-2.035A6.523,6.523,0,0,0,175.521,2.019Z" transform="translate(-151.407 -0.114)"/>
        <path id="Path_343" data-name="Path 343" class="cls-2" d="M10.839,139.9l-2.486,2.486A2.586,2.586,0,1,1,4.7,138.731l5.4-5.4a2.587,2.587,0,0,1,3.657,0l2.792-2.792a6.369,6.369,0,0,0-2.2-1.441A6.549,6.549,0,0,0,7.561,130.3a3.22,3.22,0,0,0-.252.234l-5.4,5.4a6.534,6.534,0,0,0,9.24,9.24l4.881-4.935C13.541,140.82,12.965,140.749,10.839,139.9Z" transform="translate(0 -121.066)"/>
      </g>
    </g>
  </g>
</svg>
