<svg xmlns="http://www.w3.org/2000/svg" viewBox="931 7401 60.031 60.031">
  <defs>
    <style>
      .cls-1 {
        fill: #fff;
      }

      .cls-2 {
        fill: #989898;
      }
    </style>
  </defs>
  <g id="icn-youtube" transform="translate(931 7401)">
    <g id="Layer_1" data-name="Layer 1">
      <path id="Path_183" data-name="Path 183" class="cls-1" d="M60.031,30.015A30.015,30.015,0,1,1,30.015,0,30.015,30.015,0,0,1,60.031,30.015Z"/>
      <path id="Path_184" data-name="Path 184" class="cls-2" d="M25.408,59.538s-.463-9.975.327-11.875c0,0,.594-2.749,3.028-3.355a130.672,130.672,0,0,1,24.143,0,4.091,4.091,0,0,1,3.082,3.485s1.11,8.248-.053,13.918a3.949,3.949,0,0,1-3.681,3.313s-13.283.992-22.985.012C29.267,65.036,25.55,64.989,25.408,59.538Z" transform="translate(-10.266 -17.772)"/>
      <path id="Path_185" data-name="Path 185" class="cls-2" d="M36.445,22.542,34.96,17.02H32.68l2.666,8.354v5.718h2.09V25.374l2.553-8.384h-2.06Z" transform="translate(-13.275 -6.902)"/>
      <path id="Path_186" data-name="Path 186" class="cls-2" d="M60.7,23v8.058c-1.615,1.609-1.68.386-1.68.386V23.059H57.183l-.03,8.847a1.882,1.882,0,0,0,.362,1.312c1.419,1.419,3.189-.79,3.189-.79V33.5h1.864V23Z" transform="translate(-23.213 -9.343)"/>
      <path id="Path_187" data-name="Path 187" class="cls-2" d="M47.9,22.688a2.666,2.666,0,0,0-2.725,2.826V30.93c0,2.607,2.749,2.553,2.749,2.553a2.577,2.577,0,0,0,2.773-2.69V25.325A2.556,2.556,0,0,0,47.9,22.688Zm.772,7.986s.083.992-.7.992c0,0-.891.214-.891-.992v-5.3a.808.808,0,0,1,.819-.843s.748-.036.772.867Z" transform="translate(-18.349 -9.216)"/>
      <path id="Path_188" data-name="Path 188" class="cls-1" d="M39.87,56h1.912v8.592s-.053,1.348,1.674-.38V56h1.965V66.688H43.51V65.56s-3.634,3.26-3.634-.594S39.87,56,39.87,56Z" transform="translate(-16.196 -22.749)"/>
      <path id="Path_189" data-name="Path 189" class="cls-1" d="M30.448,64.173V51.965H28.18V50h6.656v2H32.574V64.173Z" transform="translate(-11.447 -20.311)"/>
      <path id="Path_190" data-name="Path 190" class="cls-1" d="M53.856,54.566V50H51.92V64.2h1.936V63.152c3.527,2.9,3.664-.837,3.664-.837V55.748C57.276,51.413,53.856,54.566,53.856,54.566ZM55.6,61.8s-.184,1.188-1.781.243V55.641S55.6,54.346,55.6,56.1Z" transform="translate(-21.091 -20.311)"/>
      <path id="Path_191" data-name="Path 191" class="cls-1" d="M69.634,61.545V58.517s-.154-2.8-2.8-2.8a2.774,2.774,0,0,0-2.9,2.892v5.3a2.838,2.838,0,0,0,3.088,2.66s2.583-.1,2.583-2.334V62.768H67.693v1.087s-.059.992-.855.992c0,0-1.009.137-1.009-1.146V61.545Zm-3.788-2.933s0-1.1.891-1.1.992,1.122.992,1.122v1.283h-1.9Z" transform="translate(-25.974 -22.635)"/>
    </g>
  </g>
</svg>
