<svg xmlns="http://www.w3.org/2000/svg" viewBox="1015 7401 60.233 60.232">
  <defs>
    <style>
      .cls-1 {
        fill: #fff;
      }

      .cls-2 {
        fill: #989898;
      }
    </style>
  </defs>
  <g id="icn-plus" transform="translate(1015 7401)">
    <g id="Layer_1" data-name="Layer 1" transform="translate(0)">
      <path id="Path_192" data-name="Path 192" class="cls-1" d="M60.223,30.11A30.116,30.116,0,1,1,30.108,0,30.117,30.117,0,0,1,60.223,30.11Z" transform="translate(0.01 0)"/>
      <path id="Path_193" data-name="Path 193" class="cls-2" d="M40.035,43.747a2.03,2.03,0,0,1,0-3.278s2.927-1.746,3.563-4.608A6.235,6.235,0,0,0,40.95,29.52h2.3L45.961,28H35.778s-5.576.071-7.321,4.536a6.78,6.78,0,0,0,.837,6.627,6.561,6.561,0,0,0,4.465,2.44l2.019-.071a3.424,3.424,0,0,0,.772,4.156s-6.84.143-9,2.862a4.981,4.981,0,0,0,.279,7.535s2.791,2.583,9.5,1.674c0,0,4.952-.837,7.125-4.816a5.736,5.736,0,0,0-1.265-6.537,34.135,34.135,0,0,0-3.153-2.66Zm-8.129-7.6c-.956-3.022,0-6.027,2.2-6.71s4.7,1.188,5.653,4.228-.03,6.021-2.2,6.7S32.827,39.163,31.907,36.147ZM41.021,54.72c-3.278,2.648-7.541,1.11-7.541,1.11-5.653-1.817-3.628-6.068-3.628-6.068,2.233-3.628,8.087-2.856,8.087-2.856L40.659,49C44.109,51.953,41.021,54.72,41.021,54.72Z" transform="translate(-10.525 -11.374)"/>
      <path id="Path_194" data-name="Path 194" class="cls-2" d="M75.377,34.377H71.3V30.31h-1.87v4.067H65.36v1.876h4.073v4.073H71.3V36.254h4.073Z" transform="translate(-26.545 -12.313)"/>
    </g>
  </g>
</svg>
