<svg xmlns="http://www.w3.org/2000/svg" viewBox="847 7401 60.031 60.031">
  <defs>
    <style>
      .cls-1 {
        fill: #fff;
      }

      .cls-2 {
        fill: #989898;
      }
    </style>
  </defs>
  <g id="icn-twitter" transform="translate(847 7401)">
    <g id="Layer_1" data-name="Layer 1">
      <path id="Path_180" data-name="Path 180" class="cls-1" d="M60.031,30.015A30.015,30.015,0,1,1,30.015,0,30.015,30.015,0,0,1,60.031,30.015Z"/>
      <path id="Path_181" data-name="Path 181" class="cls-2" d="M33.821,42.843V28.248s-.428-4.513,3.628-4.513c0,0,3.628-.291,3.628,2.832V31.08H52.923a3.723,3.723,0,0,1,2.749,4.091,3.782,3.782,0,0,1-3.45,3.272H41.166v3.984s-.148,3.183,2.743,3.183h8.23a3.7,3.7,0,0,1,3.533,3.9,3.806,3.806,0,0,1-3.622,3.563H44.016S33.821,52.462,33.821,42.843Z" transform="translate(-13.734 -9.639)"/>
    </g>
  </g>
</svg>
