<svg xmlns="http://www.w3.org/2000/svg" viewBox="42 -320 191.278 241.308">
  <defs>
    <style>
      .cls-1 {
        fill: #d8dade;
      }

      .cls-2, .cls-4, .cls-5 {
        fill: #9c9ba0;
      }

      .cls-3 {
        fill: #737277;
      }

      .cls-4 {
        opacity: 0.5;
      }

      .cls-5 {
        opacity: 0.2;
      }

      .cls-6 {
        fill: #89878c;
      }

      .cls-7 {
        fill: #b0afb5;
      }

      .cls-8 {
        fill: #c3c5ca;
      }

      .cls-9 {
        fill: #1f140f;
        opacity: 0.15;
      }

      .cls-10 {
        fill: #811324;
      }
    </style>
  </defs>
  <g id="LogoNezco" transform="translate(42 -320)">
    <path id="Path_197" data-name="Path 197" class="cls-1" d="M0,31.292,51.13,0,68.356,8.018,50.534,46.227,68.356,76.695l-9.209,38.485L3.436,64.324Z"/>
    <path id="Path_198" data-name="Path 198" class="cls-1" d="M267,8.018,285.693,0l50.259,31.017L331.37,65.745l-55.757,49.435L267,76.374l18.372-30.146Z" transform="translate(-144.674)"/>
    <path id="Path_199" data-name="Path 199" class="cls-1" d="M134.152,19.4h49.984l16.081,37.064-26.985,44.487-2.611,54.612,12.92,33.857,7.789-5.452,5.452,7.193-10.95,9.163-16.081-3.711-16.631-34.178-8.613-59.743L117.2,56.464Z" transform="translate(-63.505 -10.512)"/>
    <path id="Path_200" data-name="Path 200" class="cls-1" d="M143.309,174.3l8.338,13.195-6.918,50.259,2.749,10.9-6.46-5.452L134.1,207.012Z" transform="translate(-72.662 -94.444)"/>
    <path id="Path_201" data-name="Path 201" class="cls-1" d="M244.5,187.77l7.743-13.47,8.338,35.323-3.757,32.437-7.147,4.032-.321-36.469Z" transform="translate(-132.482 -94.444)"/>
    <path id="Path_202" data-name="Path 202" class="cls-2" d="M51.13,0,2.382,54.154,0,31.292Z"/>
    <path id="Path_203" data-name="Path 203" class="cls-3" d="M8.132,111.1l2.841,11.316,50.992,52.962L6.254,124.524,5.2,114.353Z" transform="translate(-2.818 -60.199)"/>
    <path id="Path_204" data-name="Path 204" class="cls-4" d="M105.965,100.9,102.3,157.069l12.278,12.782,9.209-38.485Z" transform="translate(-55.431 -54.673)"/>
    <path id="Path_205" data-name="Path 205" class="cls-2" d="M305.3,0,354,54.154l2.428-22.862Z" transform="translate(-165.426)"/>
    <path id="Path_206" data-name="Path 206" class="cls-3" d="M340.549,111.1l-2.886,11.316L285.8,175.379l56.582-50.855,1.054-10.171Z" transform="translate(-154.86 -60.199)"/>
    <path id="Path_207" data-name="Path 207" class="cls-4" d="M285.476,100.9l3.665,56.169-13.149,12.782L267.7,131.367Z" transform="translate(-145.053 -54.673)"/>
    <path id="Path_208" data-name="Path 208" class="cls-2" d="M117.2,56.464l25.29-29.688L184.136,19.4H134.152Z" transform="translate(-63.505 -10.512)"/>
    <path id="Path_209" data-name="Path 209" class="cls-2" d="M207.8,23.89V37.955l41.509,18.509L233.227,19.4Z" transform="translate(-112.596 -10.512)"/>
    <path id="Path_210" data-name="Path 210" class="cls-2" d="M207.8,59.9v61.85l14.523,1.145,26.985-44.487Z" transform="translate(-112.596 -32.457)"/>
    <path id="Path_211" data-name="Path 211" class="cls-5" d="M207.5,59.7v61.85l14.478,1.191,27.031-44.532Z" transform="translate(-112.434 -32.348)"/>
    <path id="Path_212" data-name="Path 212" class="cls-2" d="M207.8,194.9l3.711,59.1,8.2-3.345,2.611-54.612Z" transform="translate(-112.596 -105.606)"/>
    <path id="Path_213" data-name="Path 213" class="cls-2" d="M215.9,319.944l21.121,30.513L224.1,316.6Z" transform="translate(-116.985 -171.549)"/>
    <path id="Path_214" data-name="Path 214" class="cls-6" d="M262,384.052l2.291,7.376,6.872-11.042-1.374-1.787Z" transform="translate(-141.964 -205.144)"/>
    <path id="Path_215" data-name="Path 215" class="cls-7" d="M195.6,331.6l32.712,37.889-16.081-3.711Z" transform="translate(-105.986 -179.677)"/>
    <path id="Path_216" data-name="Path 216" class="cls-8" d="M194.714,271.71,176.8,201.2l8.613,59.743Z" transform="translate(-95.799 -109.02)"/>
    <path id="Path_217" data-name="Path 217" class="cls-4" d="M150.846,186.6,141.5,213.127l7.239,31.292.412-28.13,4.123-25.886Z" transform="translate(-76.672 -101.109)"/>
    <path id="Path_218" data-name="Path 218" class="cls-2" d="M162.323,194.9l2.382,3.757L158.2,246.3V220.786Z" transform="translate(-85.72 -105.606)"/>
    <path id="Path_219" data-name="Path 219" class="cls-2" d="M244.5,195.572l3.94-6.872,4.673,26.3-2.062,38.118-1.374.779-1.237-37.248Z" transform="translate(-132.482 -102.247)"/>
    <path id="Path_220" data-name="Path 220" class="cls-4" d="M267.367,242.6,258.8,282.322l5.773-3.253,3.757-32.437Z" transform="translate(-140.23 -131.452)"/>
    <path id="Path_221" data-name="Path 221" class="cls-2" d="M134.152,19.4l8.338,7.376L117.2,56.464Z" transform="translate(-63.505 -10.512)"/>
    <path id="Path_222" data-name="Path 222" class="cls-9" d="M7.5,140.4s42.242,30.971,64.92,12.37l-9.667,37.889Z" transform="translate(-4.064 -76.076)"/>
    <path id="Path_223" data-name="Path 223" class="cls-9" d="M331.691,141.7S290.137,171.8,267,153.2l8.613,38.76Z" transform="translate(-144.674 -76.78)"/>
    <path id="Path_224" data-name="Path 224" class="cls-10" d="M162.672,148.547V114.6L133.9,98.7Z" transform="translate(-72.554 -53.48)"/>
    <path id="Path_225" data-name="Path 225" class="cls-10" d="M220.7,114.6v33.949L249.426,98.7Z" transform="translate(-119.586 -53.48)"/>
    <path id="Path_226" data-name="Path 226" class="cls-10" d="M140.9,72.7l30.559,16.723L201.834,72.7Z" transform="translate(-76.346 -39.392)"/>
    <g id="Group_32" data-name="Group 32" transform="translate(3.619 192.332)">
      <path id="Path_227" data-name="Path 227" class="cls-2" d="M9.229,422.1H20.362l12.645,20.663H33.1l.825-20.663h9.346l-1.329,33.033H31.266l-13.1-20.846h-.092l-.825,20.846H7.9Z" transform="translate(-7.9 -421.046)"/>
      <path id="Path_228" data-name="Path 228" class="cls-2" d="M97.229,422.1h29.093l-.275,7.1H106.621l-.229,5.956H124.58l-.275,6.826H106.117l-.229,5.956h19.426l-.275,7.1H95.9Z" transform="translate(-55.583 -421.046)"/>
      <path id="Path_229" data-name="Path 229" class="cls-2" d="M164.729,448.864l19.1-19.288H166.791l.275-7.376H197.12l-.275,6.46-18.967,19.1h17.914l-.275,7.422H164.5Z" transform="translate(-92.753 -421.1)"/>
      <path id="Path_230" data-name="Path 230" class="cls-2" d="M277.139,441.2a25.245,25.245,0,0,1-1.649,5.177,12.948,12.948,0,0,1-3.207,4.4,15.805,15.805,0,0,1-5.5,3.07,28.293,28.293,0,0,1-8.567,1.145c-6.139,0-10.675-1.512-13.561-4.49s-4.215-7.33-3.986-13.057a23.012,23.012,0,0,1,1.374-7.422,14.363,14.363,0,0,1,9.346-8.934,26.1,26.1,0,0,1,8.247-1.191,34.06,34.06,0,0,1,6.277.55,15.2,15.2,0,0,1,5.269,2.016,12.331,12.331,0,0,1,3.94,4.169,19.156,19.156,0,0,1,2.245,6.964H266.6a9.974,9.974,0,0,0-.55-1.97,6.71,6.71,0,0,0-1.191-2.062,6.274,6.274,0,0,0-2.108-1.6,7.985,7.985,0,0,0-3.39-.641,8.236,8.236,0,0,0-3.848.825,7.064,7.064,0,0,0-2.566,2.2,10.073,10.073,0,0,0-1.466,3.253,17.74,17.74,0,0,0-.55,3.894,18,18,0,0,0,.229,3.894,9.194,9.194,0,0,0,1.191,3.253,6.484,6.484,0,0,0,2.382,2.2,8.052,8.052,0,0,0,3.894.825,7.75,7.75,0,0,0,5.269-1.7,7.877,7.877,0,0,0,2.566-4.627h10.675Z" transform="translate(-134.012 -419.854)"/>
      <path id="Path_231" data-name="Path 231" class="cls-2" d="M326.967,437.393a21.344,21.344,0,0,1,1.833-8.522,14.94,14.94,0,0,1,4.307-5.406,16.775,16.775,0,0,1,6.139-2.841,31.242,31.242,0,0,1,7.33-.825,30.738,30.738,0,0,1,7.239.825,14.219,14.219,0,0,1,5.91,2.841,12.6,12.6,0,0,1,3.894,5.406,20.545,20.545,0,0,1,1.145,8.522,21.345,21.345,0,0,1-1.833,8.522,14.937,14.937,0,0,1-4.307,5.406,16.775,16.775,0,0,1-6.139,2.841,31.7,31.7,0,0,1-7.285.825,30.458,30.458,0,0,1-7.239-.825,14.785,14.785,0,0,1-5.91-2.841,12.6,12.6,0,0,1-3.894-5.406A19.989,19.989,0,0,1,326.967,437.393Zm10.263,0a13.549,13.549,0,0,0,.458,4.49,7.975,7.975,0,0,0,1.649,3.161,6.315,6.315,0,0,0,2.657,1.833,9.5,9.5,0,0,0,3.528.6,10.09,10.09,0,0,0,3.574-.6,7.247,7.247,0,0,0,2.795-1.833,8.918,8.918,0,0,0,1.878-3.161,16,16,0,0,0,.825-4.49c.137-3.436-.55-6-2.062-7.651a7.975,7.975,0,0,0-6.185-2.474,10.1,10.1,0,0,0-3.574.641,7.35,7.35,0,0,0-2.795,1.879,8.917,8.917,0,0,0-1.878,3.161A11.8,11.8,0,0,0,337.23,437.393Z" transform="translate(-180.771 -419.8)"/>
    </g>
    <g id="Group_33" data-name="Group 33" transform="translate(0.825 230.633)">
      <path id="Path_232" data-name="Path 232" class="cls-2" d="M3.22,511.432h1.7l-.825,5.406H1.8Zm.367-2.932H5.832l-.458,2.337H3.083Z" transform="translate(-1.8 -506.163)"/>
      <path id="Path_233" data-name="Path 233" class="cls-2" d="M17.648,507.394h3.8l-.962,4.719h-1.1l-.092-.87a3.748,3.748,0,0,1-.412.367,4.669,4.669,0,0,1-.687.367,2.962,2.962,0,0,1-.962.275,5.108,5.108,0,0,1-1.237.137,5.705,5.705,0,0,1-1.924-.275,2.537,2.537,0,0,1-1.191-.825,2.614,2.614,0,0,1-.5-1.374,7.3,7.3,0,0,1,.137-1.924,7.815,7.815,0,0,1,.6-1.741,4.737,4.737,0,0,1,1.1-1.42,4.682,4.682,0,0,1,1.6-.962,5.708,5.708,0,0,1,2.062-.367,7.941,7.941,0,0,1,1.466.137,3.545,3.545,0,0,1,1.283.458,2.777,2.777,0,0,1,.87.916,2.493,2.493,0,0,1,.229,1.466H19.069a1.356,1.356,0,0,0-.092-.458,1,1,0,0,0-.229-.367,2.005,2.005,0,0,0-.458-.275,2.775,2.775,0,0,0-.687-.092,2.126,2.126,0,0,0-.962.183,3.01,3.01,0,0,0-.779.55,2.6,2.6,0,0,0-.55.825,4.022,4.022,0,0,0-.321,1.054,8.227,8.227,0,0,0-.092,1.008,1.605,1.605,0,0,0,.779,1.374,1.817,1.817,0,0,0,.916.183,2.6,2.6,0,0,0,1.42-.367,2.4,2.4,0,0,0,.87-1.1H17.419Z" transform="translate(-7.523 -503.454)"/>
      <path id="Path_234" data-name="Path 234" class="cls-2" d="M41.13,512.673a3.741,3.741,0,0,1-.5.779,3,3,0,0,1-.825.687,6.628,6.628,0,0,1-1.145.5,5.263,5.263,0,0,1-1.512.183A3.5,3.5,0,0,1,34.533,514a2.787,2.787,0,0,1-.458-2.612,6.107,6.107,0,0,1,.55-1.466,4.26,4.26,0,0,1,.962-1.054,3.982,3.982,0,0,1,1.329-.641A5.818,5.818,0,0,1,38.473,508a4.773,4.773,0,0,1,1.512.229,2.184,2.184,0,0,1,1.558,1.878,4.4,4.4,0,0,1-.092,1.7l-.046.183h-5.36a2.053,2.053,0,0,0,.046.55,1.434,1.434,0,0,0,.229.458.779.779,0,0,0,.458.275,1.564,1.564,0,0,0,.687.092,1.582,1.582,0,0,0,.825-.229,3.151,3.151,0,0,0,.6-.5H41.13Zm-1.7-1.97a1.879,1.879,0,0,0-.046-.5.743.743,0,0,0-.229-.412.667.667,0,0,0-.412-.275,1.359,1.359,0,0,0-.641-.092,1.941,1.941,0,0,0-1.191.367,2.556,2.556,0,0,0-.641.916Z" transform="translate(-19.231 -505.893)"/>
      <path id="Path_235" data-name="Path 235" class="cls-2" d="M52.529,508.283H54.59l-.183.916h0a3.709,3.709,0,0,1,1.054-.779,3.413,3.413,0,0,1,1.42-.321,2.48,2.48,0,0,1,.87.137,1.553,1.553,0,0,1,.641.412,1.342,1.342,0,0,1,.321.733,2.561,2.561,0,0,1-.046,1.008l-.87,4.169H55.69l.687-3.436c.183-.825-.092-1.191-.825-1.191a1.6,1.6,0,0,0-1.008.366,1.735,1.735,0,0,0-.6,1.145l-.641,3.115H51.2Z" transform="translate(-28.567 -505.947)"/>
      <path id="Path_236" data-name="Path 236" class="cls-2" d="M76.43,512.673a3.74,3.74,0,0,1-.5.779,3,3,0,0,1-.825.687,6.628,6.628,0,0,1-1.145.5,5.263,5.263,0,0,1-1.512.183A3.5,3.5,0,0,1,69.833,514a2.787,2.787,0,0,1-.458-2.612,6.107,6.107,0,0,1,.55-1.466,4.26,4.26,0,0,1,.962-1.054,3.982,3.982,0,0,1,1.329-.641A5.818,5.818,0,0,1,73.773,508a4.773,4.773,0,0,1,1.512.229,2.184,2.184,0,0,1,1.558,1.878,4.4,4.4,0,0,1-.092,1.7l-.046.183H71.39a2.053,2.053,0,0,0,.046.55,1.434,1.434,0,0,0,.229.458.779.779,0,0,0,.458.275,1.564,1.564,0,0,0,.687.092,1.582,1.582,0,0,0,.825-.229,3.152,3.152,0,0,0,.6-.5h2.2Zm-1.649-1.97a1.88,1.88,0,0,0-.046-.5.744.744,0,0,0-.229-.412.667.667,0,0,0-.412-.275,1.359,1.359,0,0,0-.641-.092,1.941,1.941,0,0,0-1.191.367,2.556,2.556,0,0,0-.641.916Z" transform="translate(-38.358 -505.893)"/>
      <path id="Path_237" data-name="Path 237" class="cls-2" d="M87.874,508.283h2.062l-.275,1.237h0a3.294,3.294,0,0,1,1.1-1.008,2.651,2.651,0,0,1,1.374-.412H92.5c.137,0,.229.046.321.046l-.458,2.337a3.708,3.708,0,0,0-.5-.137,3.031,3.031,0,0,0-.641-.046,2.064,2.064,0,0,0-1.42.5,2.2,2.2,0,0,0-.687,1.374l-.5,2.474H86.5Z" transform="translate(-47.695 -505.947)"/>
      <path id="Path_238" data-name="Path 238" class="cls-2" d="M100.468,510.2a3.859,3.859,0,0,1,.6-1.145,2.555,2.555,0,0,1,.916-.641,6.281,6.281,0,0,1,1.1-.321,10.448,10.448,0,0,1,1.237-.092,11.344,11.344,0,0,1,1.329.092,2.9,2.9,0,0,1,1.008.321,1.351,1.351,0,0,1,.6.641,1.728,1.728,0,0,1,.046,1.1l-.641,3.207a3.6,3.6,0,0,0-.092.641v.229c0,.092.046.183.046.275H104.5c0-.092-.046-.183,0-.275v-.275a3.3,3.3,0,0,1-1.237.687,7.115,7.115,0,0,1-1.466.183c-1.741,0-2.474-.641-2.245-1.97a2.744,2.744,0,0,1,.367-.916,1.715,1.715,0,0,1,.55-.6,4.06,4.06,0,0,1,.779-.367,6.256,6.256,0,0,1,1.054-.183l2.153-.183a.8.8,0,0,0,.55-.137.69.69,0,0,0,.183-.366.434.434,0,0,0-.229-.5,2.2,2.2,0,0,0-.962-.183,1.712,1.712,0,0,0-.916.183,1.305,1.305,0,0,0-.5.6h-2.108Zm4.444,1.42a2.892,2.892,0,0,1-.321.092c-.137.046-.321.046-.5.092l-1.466.183a1.289,1.289,0,0,0-.5.183c-.137.092-.183.229-.229.458a.541.541,0,0,0,.137.55.9.9,0,0,0,.641.183,2.775,2.775,0,0,0,1.466-.366,1.55,1.55,0,0,0,.687-1.054Z" transform="translate(-54.745 -505.893)"/>
      <path id="Path_239" data-name="Path 239" class="cls-2" d="M118.829,508.283h2.062l-.183.916h0a3.709,3.709,0,0,1,1.054-.779,3.413,3.413,0,0,1,1.42-.321,2.48,2.48,0,0,1,.87.137,1.553,1.553,0,0,1,.641.412,1.342,1.342,0,0,1,.321.733,2.56,2.56,0,0,1-.046,1.008l-.87,4.169H121.99l.687-3.436c.183-.825-.092-1.191-.825-1.191a1.6,1.6,0,0,0-1.008.366,1.735,1.735,0,0,0-.6,1.145l-.641,3.115H117.5Z" transform="translate(-64.492 -505.947)"/>
      <path id="Path_240" data-name="Path 240" class="cls-2" d="M140.178,511.489h0a3.3,3.3,0,0,1-2.291,1.008,3.31,3.31,0,0,1-1.237-.229,1.833,1.833,0,0,1-.87-.687,1.972,1.972,0,0,1-.412-1.054,4.135,4.135,0,0,1,.092-1.466,4.3,4.3,0,0,1,.458-1.283,3.831,3.831,0,0,1,.825-1.054,3.281,3.281,0,0,1,1.145-.733,3.347,3.347,0,0,1,1.374-.275,2.41,2.41,0,0,1,1.191.275,1.427,1.427,0,0,1,.641.733h0l.6-3.024H143.8l-1.741,8.522h-2.062Zm.412-2.428a1.672,1.672,0,0,0-.137-1.191,1.112,1.112,0,0,0-1.054-.458,1.712,1.712,0,0,0-1.191.412,2.3,2.3,0,0,0-.641,1.191,1.559,1.559,0,0,0,.137,1.191,1.159,1.159,0,0,0,1.008.412,1.49,1.49,0,0,0,1.191-.458A1.347,1.347,0,0,0,140.591,509.06Z" transform="translate(-74.159 -503.563)"/>
      <path id="Path_241" data-name="Path 241" class="cls-2" d="M153.549,511.336a4.059,4.059,0,0,1,1.512-2.566,4.991,4.991,0,0,1,2.978-.87,3.265,3.265,0,0,1,2.611.87,2.755,2.755,0,0,1,.412,2.566,4.06,4.06,0,0,1-1.512,2.566,4.991,4.991,0,0,1-2.978.87,3.264,3.264,0,0,1-2.611-.87A2.727,2.727,0,0,1,153.549,511.336Zm4.123-1.787a1.806,1.806,0,0,0-1.237.458,2.44,2.44,0,0,0-.687,1.329,1.537,1.537,0,0,0,.137,1.329,1.275,1.275,0,0,0,1.054.458,1.73,1.73,0,0,0,1.237-.458,2.44,2.44,0,0,0,.687-1.329,1.537,1.537,0,0,0-.137-1.329A1.211,1.211,0,0,0,157.672,509.549Z" transform="translate(-83.956 -505.838)"/>
      <path id="Path_242" data-name="Path 242" class="cls-2" d="M189.752,508.852a6.712,6.712,0,0,1-.641,1.283,3.623,3.623,0,0,1-.962,1.1,4.457,4.457,0,0,1-1.466.779,7.237,7.237,0,0,1-2.153.275c-1.512,0-2.566-.366-3.115-1.145a3.807,3.807,0,0,1-.412-3.3,7.552,7.552,0,0,1,.641-1.878,4.057,4.057,0,0,1,1.1-1.374,4.717,4.717,0,0,1,1.558-.871,6.955,6.955,0,0,1,2.062-.321,7.724,7.724,0,0,1,1.512.137,3.125,3.125,0,0,1,1.191.5,2.646,2.646,0,0,1,.779,1.054,4.134,4.134,0,0,1,.229,1.787h-2.611c0-.137-.046-.321-.046-.5a1.64,1.64,0,0,0-.183-.5,1.021,1.021,0,0,0-.458-.412,1.95,1.95,0,0,0-.779-.183,2.124,2.124,0,0,0-.962.183,2.794,2.794,0,0,0-.733.55,3.593,3.593,0,0,0-.5.825,3.8,3.8,0,0,0-.275.962,3.592,3.592,0,0,0-.092.962,2.4,2.4,0,0,0,.137.825,1.166,1.166,0,0,0,.5.55,1.817,1.817,0,0,0,.916.183,2.226,2.226,0,0,0,1.374-.412,2.537,2.537,0,0,0,.825-1.191h2.566Z" transform="translate(-98.808 -503.4)"/>
      <path id="Path_243" data-name="Path 243" class="cls-2" d="M202.068,510.2a3.857,3.857,0,0,1,.6-1.145,2.555,2.555,0,0,1,.916-.641,6.282,6.282,0,0,1,1.1-.321,10.448,10.448,0,0,1,1.237-.092,11.345,11.345,0,0,1,1.329.092,2.9,2.9,0,0,1,1.008.321,1.351,1.351,0,0,1,.6.641,1.729,1.729,0,0,1,.046,1.1l-.641,3.207a3.6,3.6,0,0,0-.092.641v.229c0,.092.046.183.046.275H206.1c0-.092-.046-.183,0-.275v-.275a3.3,3.3,0,0,1-1.237.687,7.115,7.115,0,0,1-1.466.183c-1.741,0-2.474-.641-2.245-1.97a2.745,2.745,0,0,1,.367-.916,1.715,1.715,0,0,1,.55-.6,4.06,4.06,0,0,1,.779-.367,6.256,6.256,0,0,1,1.054-.183l2.153-.183a.8.8,0,0,0,.55-.137.69.69,0,0,0,.183-.366.434.434,0,0,0-.229-.5,2.2,2.2,0,0,0-.962-.183,1.712,1.712,0,0,0-.916.183,1.306,1.306,0,0,0-.5.6h-2.107Zm4.444,1.42a2.9,2.9,0,0,1-.321.092c-.137.046-.321.046-.5.092l-1.466.183a1.289,1.289,0,0,0-.5.183c-.137.092-.183.229-.229.458a.541.541,0,0,0,.137.55.9.9,0,0,0,.641.183,2.775,2.775,0,0,0,1.466-.366,1.55,1.55,0,0,0,.687-1.054Z" transform="translate(-109.796 -505.893)"/>
      <path id="Path_244" data-name="Path 244" class="cls-2" d="M220.887,503.6h2.108l-1.787,8.567H219.1Z" transform="translate(-119.544 -503.508)"/>
      <path id="Path_245" data-name="Path 245" class="cls-2" d="M228.083,505.845h2.108l-1.283,6.323H226.8Zm.5-2.245h2.108l-.321,1.512h-2.107Z" transform="translate(-123.716 -503.508)"/>
      <path id="Path_246" data-name="Path 246" class="cls-2" d="M239.678,511.489h0a3.3,3.3,0,0,1-2.291,1.008,3.31,3.31,0,0,1-1.237-.229,1.833,1.833,0,0,1-.87-.687,1.972,1.972,0,0,1-.412-1.054,4.136,4.136,0,0,1,.092-1.466,4.3,4.3,0,0,1,.458-1.283,3.831,3.831,0,0,1,.825-1.054,4.1,4.1,0,0,1,1.145-.733,3.347,3.347,0,0,1,1.374-.275,2.41,2.41,0,0,1,1.191.275,1.427,1.427,0,0,1,.641.733h0l.6-3.024H243.3l-1.741,8.522h-2.062Zm.458-2.428a1.672,1.672,0,0,0-.137-1.191,1.215,1.215,0,0,0-1.054-.458,1.712,1.712,0,0,0-1.191.412,2.3,2.3,0,0,0-.641,1.191,1.559,1.559,0,0,0,.137,1.191,1.159,1.159,0,0,0,1.008.412,1.49,1.49,0,0,0,1.191-.458A1.6,1.6,0,0,0,240.136,509.06Z" transform="translate(-128.072 -503.563)"/>
      <path id="Path_247" data-name="Path 247" class="cls-2" d="M253.368,510.2a3.859,3.859,0,0,1,.6-1.145,2.555,2.555,0,0,1,.916-.641,6.281,6.281,0,0,1,1.1-.321,10.449,10.449,0,0,1,1.237-.092,11.342,11.342,0,0,1,1.329.092,2.9,2.9,0,0,1,1.008.321,1.351,1.351,0,0,1,.6.641,1.729,1.729,0,0,1,.046,1.1l-.641,3.207a3.6,3.6,0,0,0-.092.641v.229c0,.046.046.183.046.275H257.4c0-.092-.046-.183,0-.275v-.275a3.3,3.3,0,0,1-1.237.687,7.114,7.114,0,0,1-1.466.183c-1.741,0-2.474-.641-2.245-1.97a2.743,2.743,0,0,1,.367-.916,1.715,1.715,0,0,1,.55-.6,4.059,4.059,0,0,1,.779-.367,6.257,6.257,0,0,1,1.054-.183l2.153-.183a.8.8,0,0,0,.55-.137.691.691,0,0,0,.183-.366.434.434,0,0,0-.229-.5,2.2,2.2,0,0,0-.962-.183,1.712,1.712,0,0,0-.916.183,1.306,1.306,0,0,0-.5.6h-2.107Zm4.444,1.42a2.892,2.892,0,0,1-.321.092c-.137.046-.321.046-.5.092l-1.466.183a1.289,1.289,0,0,0-.5.183c-.137.092-.183.229-.229.458a.541.541,0,0,0,.137.55.9.9,0,0,0,.641.183,2.775,2.775,0,0,0,1.466-.366,1.55,1.55,0,0,0,.687-1.054Z" transform="translate(-137.593 -505.893)"/>
      <path id="Path_248" data-name="Path 248" class="cls-2" d="M275.778,511.489h0a3.3,3.3,0,0,1-2.291,1.008,3.31,3.31,0,0,1-1.237-.229,1.834,1.834,0,0,1-.87-.687,1.972,1.972,0,0,1-.412-1.054,4.137,4.137,0,0,1,.092-1.466,4.3,4.3,0,0,1,.458-1.283,3.829,3.829,0,0,1,.825-1.054,3.28,3.28,0,0,1,1.145-.733,3.347,3.347,0,0,1,1.374-.275,2.41,2.41,0,0,1,1.191.275,1.427,1.427,0,0,1,.641.733h0l.6-3.024H279.4l-1.741,8.522h-2.062Zm.458-2.428a1.672,1.672,0,0,0-.137-1.191,1.215,1.215,0,0,0-1.054-.458,1.712,1.712,0,0,0-1.191.412,2.3,2.3,0,0,0-.641,1.191,1.559,1.559,0,0,0,.137,1.191,1.159,1.159,0,0,0,1.008.412,1.49,1.49,0,0,0,1.191-.458A1.46,1.46,0,0,0,276.236,509.06Z" transform="translate(-147.633 -503.563)"/>
      <path id="Path_249" data-name="Path 249" class="cls-2" d="M302.678,511.489h0a3.3,3.3,0,0,1-2.291,1.008,3.309,3.309,0,0,1-1.237-.229,1.833,1.833,0,0,1-.871-.687,1.972,1.972,0,0,1-.412-1.054,4.135,4.135,0,0,1,.092-1.466,4.3,4.3,0,0,1,.458-1.283,3.83,3.83,0,0,1,.825-1.054,4.1,4.1,0,0,1,1.145-.733,3.347,3.347,0,0,1,1.374-.275,2.41,2.41,0,0,1,1.191.275,1.427,1.427,0,0,1,.641.733h0l.6-3.024H306.3l-1.741,8.522h-2.062Zm.458-2.428a1.672,1.672,0,0,0-.137-1.191,1.215,1.215,0,0,0-1.054-.458,1.712,1.712,0,0,0-1.191.412,2.3,2.3,0,0,0-.641,1.191,1.559,1.559,0,0,0,.137,1.191,1.159,1.159,0,0,0,1.008.412,1.49,1.49,0,0,0,1.191-.458A1.459,1.459,0,0,0,303.136,509.06Z" transform="translate(-162.209 -503.563)"/>
      <path id="Path_250" data-name="Path 250" class="cls-2" d="M323.33,512.673a3.743,3.743,0,0,1-.5.779,3,3,0,0,1-.825.687,6.632,6.632,0,0,1-1.145.5,5.264,5.264,0,0,1-1.512.183,3.5,3.5,0,0,1-2.611-.825,2.787,2.787,0,0,1-.458-2.612,6.11,6.11,0,0,1,.55-1.466,4.258,4.258,0,0,1,.962-1.054,3.983,3.983,0,0,1,1.329-.641,5.818,5.818,0,0,1,1.558-.229,4.773,4.773,0,0,1,1.512.229,2.184,2.184,0,0,1,1.558,1.878,4.4,4.4,0,0,1-.092,1.7l-.046.183h-5.269a2.056,2.056,0,0,0,.046.55,1.435,1.435,0,0,0,.229.458.78.78,0,0,0,.458.275,1.564,1.564,0,0,0,.687.092,1.582,1.582,0,0,0,.825-.229,3.152,3.152,0,0,0,.6-.5h2.153Zm-1.7-1.97a1.88,1.88,0,0,0-.046-.5.743.743,0,0,0-.229-.412.667.667,0,0,0-.412-.275,1.359,1.359,0,0,0-.641-.092,1.941,1.941,0,0,0-1.191.367,2.556,2.556,0,0,0-.641.916Z" transform="translate(-172.14 -505.893)"/>
    </g>
    <g id="Group_34" data-name="Group 34" transform="translate(156.276 230.954)">
      <path id="Path_251" data-name="Path 251" class="cls-2" d="M341.1,504.1h2.611l.6,5.956h0l3.024-5.956h2.611l-4.9,8.338h-2.52Z" transform="translate(-341.1 -504.1)"/>
    </g>
    <g id="Group_35" data-name="Group 35" transform="translate(164.018 230.725)">
      <path id="Path_252" data-name="Path 252" class="cls-2" d="M359.283,505.845h2.107l-1.283,6.323H358Zm.458-2.245h2.107l-.321,1.512H359.42Z" transform="translate(-358 -503.6)"/>
      <path id="Path_253" data-name="Path 253" class="cls-2" d="M370.878,511.489h0a3.3,3.3,0,0,1-2.291,1.008,3.31,3.31,0,0,1-1.237-.229,1.833,1.833,0,0,1-.87-.687,1.97,1.97,0,0,1-.412-1.054,4.135,4.135,0,0,1,.092-1.466,4.3,4.3,0,0,1,.458-1.283,3.832,3.832,0,0,1,.825-1.054,4.1,4.1,0,0,1,1.145-.733,3.347,3.347,0,0,1,1.374-.275,2.41,2.41,0,0,1,1.191.275,1.427,1.427,0,0,1,.641.733h0l.6-3.024H374.5l-1.741,8.522h-2.062Zm.458-2.428a1.672,1.672,0,0,0-.137-1.191,1.215,1.215,0,0,0-1.054-.458,1.712,1.712,0,0,0-1.191.412,2.3,2.3,0,0,0-.641,1.191,1.559,1.559,0,0,0,.137,1.191,1.159,1.159,0,0,0,1.008.412,1.49,1.49,0,0,0,1.191-.458A1.6,1.6,0,0,0,371.336,509.06Z" transform="translate(-362.357 -503.654)"/>
      <path id="Path_254" data-name="Path 254" class="cls-2" d="M384.568,510.2a3.856,3.856,0,0,1,.6-1.145,2.555,2.555,0,0,1,.916-.641,6.28,6.28,0,0,1,1.1-.321,10.449,10.449,0,0,1,1.237-.092,11.344,11.344,0,0,1,1.329.092,2.9,2.9,0,0,1,1.008.321,1.351,1.351,0,0,1,.6.641,1.729,1.729,0,0,1,.046,1.1l-.641,3.207a3.6,3.6,0,0,0-.091.641v.229c0,.046.046.183.046.275H388.6c0-.092-.046-.183,0-.275v-.275a3.3,3.3,0,0,1-1.237.687,7.115,7.115,0,0,1-1.466.183c-1.741,0-2.474-.641-2.245-1.97a2.746,2.746,0,0,1,.367-.916,1.715,1.715,0,0,1,.55-.6,4.06,4.06,0,0,1,.779-.367,6.255,6.255,0,0,1,1.054-.183l2.153-.183a.8.8,0,0,0,.55-.137.691.691,0,0,0,.183-.366.434.434,0,0,0-.229-.5,2.2,2.2,0,0,0-.962-.183,1.712,1.712,0,0,0-.916.183,1.305,1.305,0,0,0-.5.6h-2.107Zm4.444,1.42a2.9,2.9,0,0,1-.321.092c-.137.046-.321.046-.5.092l-1.466.183a1.289,1.289,0,0,0-.5.183c-.138.092-.183.229-.229.458a.541.541,0,0,0,.137.55.9.9,0,0,0,.641.183,2.775,2.775,0,0,0,1.466-.366,1.55,1.55,0,0,0,.687-1.054Z" transform="translate(-371.877 -505.984)"/>
      <path id="Path_255" data-name="Path 255" class="cls-2" d="M402.658,510.148H404.9l-.458,2.337H402.2ZM403.9,504.1h2.291l-1.42,5.406h-1.7Z" transform="translate(-381.95 -503.871)"/>
    </g>
  </g>
</svg>
