<svg xmlns="http://www.w3.org/2000/svg" viewBox="1659 7124 121.452 153.218">
  <defs>
    <style>
      .cls-1, .cls-2 {
        fill: #fff;
      }

      .cls-2 {
        opacity: 0.5;
      }

      .cls-3 {
        fill: #1f140f;
        opacity: 0.15;
      }
    </style>
  </defs>
  <g id="LogoPositivo" transform="translate(1732 7509)">
    <path id="Path_197" data-name="Path 197" class="cls-1" d="M0,19.869,32.465,0,43.4,5.091,32.086,29.352,43.4,48.7,37.555,73.133,2.182,40.843Z" transform="translate(-73 -385)"/>
    <path id="Path_198" data-name="Path 198" class="cls-1" d="M267,5.091,278.869,0l31.912,19.694-2.909,22.05-35.4,31.388L267,48.493l11.665-19.141Z" transform="translate(-262.329 -385)"/>
    <path id="Path_199" data-name="Path 199" class="cls-1" d="M127.963,19.4H159.7l10.211,23.534L152.777,71.181l-1.658,34.676,8.2,21.5,4.945-3.462,3.462,4.567-6.953,5.818-10.211-2.356-10.56-21.7-5.469-37.934L117.2,42.934Z" transform="translate(-156.106 -398.757)"/>
    <path id="Path_200" data-name="Path 200" class="cls-1" d="M139.947,174.3l5.294,8.378-4.393,31.912,1.745,6.923-4.1-3.462L134.1,195.07Z" transform="translate(-168.09 -508.596)"/>
    <path id="Path_201" data-name="Path 201" class="cls-1" d="M244.5,182.853l4.916-8.553,5.294,22.429-2.385,20.6-4.538,2.56-.2-23.156Z" transform="translate(-246.374 -508.596)"/>
    <path id="Path_202" data-name="Path 202" class="cls-1" d="M32.465,0,1.513,34.385,0,19.869Z" transform="translate(-73 -385)"/>
    <path id="Path_203" data-name="Path 203" class="cls-1" d="M7.062,111.1l1.8,7.185,32.377,33.628L5.869,119.623,5.2,113.165Z" transform="translate(-76.687 -463.781)"/>
    <path id="Path_204" data-name="Path 204" class="cls-2" d="M104.627,100.9,102.3,136.565l7.8,8.116,5.847-24.436Z" transform="translate(-145.541 -456.548)"/>
    <path id="Path_205" data-name="Path 205" class="cls-1" d="M305.3,0l30.923,34.385,1.542-14.516Z" transform="translate(-289.488 -385)"/>
    <path id="Path_206" data-name="Path 206" class="cls-1" d="M320.563,111.1l-1.833,7.185L285.8,151.914l35.926-32.29.669-6.458Z" transform="translate(-275.66 -463.781)"/>
    <path id="Path_207" data-name="Path 207" class="cls-2" d="M278.987,100.9l2.327,35.665-8.349,8.116L267.7,120.245Z" transform="translate(-262.826 -456.548)"/>
    <path id="Path_208" data-name="Path 208" class="cls-1" d="M117.2,42.934l16.058-18.85L159.7,19.4H127.963Z" transform="translate(-156.106 -398.757)"/>
    <path id="Path_209" data-name="Path 209" class="cls-1" d="M207.8,22.251v8.931l26.356,11.752L223.945,19.4Z" transform="translate(-220.351 -398.757)"/>
    <path id="Path_210" data-name="Path 210" class="cls-1" d="M207.8,59.9V99.172l9.222.727,17.134-28.247Z" transform="translate(-220.351 -427.475)"/>
    <path id="Path_212" data-name="Path 212" class="cls-1" d="M207.8,194.9l2.356,37.526,5.207-2.124,1.658-34.676Z" transform="translate(-220.351 -523.203)"/>
    <path id="Path_213" data-name="Path 213" class="cls-1" d="M215.9,318.724,229.311,338.1l-8.2-21.5Z" transform="translate(-226.094 -609.5)"/>
    <path id="Path_214" data-name="Path 214" class="cls-1" d="M262,382.062l1.454,4.684,4.364-7.011-.873-1.134Z" transform="translate(-258.784 -653.464)"/>
    <path id="Path_215" data-name="Path 215" class="cls-1" d="M195.6,331.6l20.77,24.058L206.16,353.3Z" transform="translate(-211.7 -620.137)"/>
    <path id="Path_216" data-name="Path 216" class="cls-1" d="M188.174,245.97,176.8,201.2l5.469,37.934Z" transform="translate(-198.368 -527.671)"/>
    <path id="Path_217" data-name="Path 217" class="cls-2" d="M147.434,186.6,141.5,203.443l4.6,19.869.262-17.861,2.618-16.436Z" transform="translate(-173.337 -517.318)"/>
    <path id="Path_218" data-name="Path 218" class="cls-1" d="M160.818,194.9l1.513,2.385L158.2,227.539v-16.2Z" transform="translate(-185.179 -523.203)"/>
    <path id="Path_219" data-name="Path 219" class="cls-1" d="M244.5,193.064,247,188.7l2.967,16.7-1.309,24.2-.873.495L247,206.445Z" transform="translate(-246.374 -518.807)"/>
    <path id="Path_220" data-name="Path 220" class="cls-2" d="M264.24,242.6l-5.44,25.221,3.665-2.065,2.385-20.6Z" transform="translate(-256.515 -557.027)"/>
    <path id="Path_221" data-name="Path 221" class="cls-1" d="M127.963,19.4l5.294,4.684L117.2,42.934Z" transform="translate(-156.106 -398.757)"/>
    <path id="Path_222" data-name="Path 222" class="cls-3" d="M7.5,140.4s26.732,19.827,41.244,7.876L42.855,172.69Z" transform="translate(-78.318 -484.557)"/>
    <path id="Path_223" data-name="Path 223" class="cls-3" d="M307.981,142.132S281.691,160.812,267,149l5.469,24.61Z" transform="translate(-262.329 -485.479)"/>
    <path id="Path_224" data-name="Path 224" d="M152.169,130.35V108.794L133.9,98.7Z" transform="translate(-167.948 -454.988)"/>
    <path id="Path_225" data-name="Path 225" d="M220.7,108.794V130.35L238.94,98.7Z" transform="translate(-229.498 -454.988)"/>
    <path id="Path_226" data-name="Path 226" d="M140.9,72.7l19.4,10.618L179.59,72.7Z" transform="translate(-172.912 -436.551)"/>
    <g id="Group_32" data-name="Group 32" transform="translate(-70.702 -262.879)">
      <path id="Path_227" data-name="Path 227" class="cls-1" d="M8.744,422.1h7.069l8.029,13.12H23.9l.524-13.12h5.934l-.844,20.974H22.736l-8.32-13.236h-.058l-.524,13.236H7.9Z" transform="translate(-7.9 -421.431)"/>
      <path id="Path_228" data-name="Path 228" class="cls-1" d="M96.744,422.1h18.472l-.175,4.509H102.707l-.145,3.782H114.11l-.175,4.334H102.387l-.145,3.782h12.334l-.175,4.509H95.9Z" transform="translate(-70.301 -421.431)"/>
      <path id="Path_229" data-name="Path 229" class="cls-1" d="M164.645,439.13l12.131-12.247H165.955l.175-4.684h19.083l-.175,4.1-12.043,12.131h11.374l-.175,4.713H164.5Z" transform="translate(-118.945 -421.502)"/>
      <path id="Path_230" data-name="Path 230" class="cls-1" d="M263.817,433.427a16.03,16.03,0,0,1-1.047,3.287,8.222,8.222,0,0,1-2.036,2.793,10.035,10.035,0,0,1-3.491,1.949,17.964,17.964,0,0,1-5.44.727c-3.9,0-6.778-.96-8.611-2.851s-2.676-4.654-2.531-8.291a14.611,14.611,0,0,1,.873-4.713,9.12,9.12,0,0,1,5.934-5.673,16.572,16.572,0,0,1,5.236-.756,21.625,21.625,0,0,1,3.985.349,9.651,9.651,0,0,1,3.345,1.28,7.83,7.83,0,0,1,2.5,2.647,12.163,12.163,0,0,1,1.425,4.422h-6.836a6.333,6.333,0,0,0-.349-1.251,4.26,4.26,0,0,0-.756-1.309,3.983,3.983,0,0,0-1.338-1.018,5.07,5.07,0,0,0-2.153-.407,5.23,5.23,0,0,0-2.444.524,4.485,4.485,0,0,0-1.629,1.4,6.4,6.4,0,0,0-.931,2.065,11.264,11.264,0,0,0-.349,2.473,11.43,11.43,0,0,0,.145,2.473,5.837,5.837,0,0,0,.756,2.065,4.117,4.117,0,0,0,1.513,1.4,5.113,5.113,0,0,0,2.473.524,4.921,4.921,0,0,0,3.345-1.076,5,5,0,0,0,1.629-2.938h6.778Z" transform="translate(-172.939 -419.871)"/>
      <path id="Path_231" data-name="Path 231" class="cls-1" d="M326.957,430.971a13.552,13.552,0,0,1,1.164-5.411,9.485,9.485,0,0,1,2.734-3.433,10.651,10.651,0,0,1,3.9-1.8,19.837,19.837,0,0,1,4.654-.524,19.518,19.518,0,0,1,4.6.524,9.028,9.028,0,0,1,3.753,1.8,8,8,0,0,1,2.473,3.433,13.045,13.045,0,0,1,.727,5.411,13.553,13.553,0,0,1-1.164,5.411,9.485,9.485,0,0,1-2.734,3.433,10.651,10.651,0,0,1-3.9,1.8,20.129,20.129,0,0,1-4.625.524,19.34,19.34,0,0,1-4.6-.524,9.388,9.388,0,0,1-3.753-1.8,8,8,0,0,1-2.473-3.433A12.692,12.692,0,0,1,326.957,430.971Zm6.516,0a8.6,8.6,0,0,0,.291,2.851,5.064,5.064,0,0,0,1.047,2.007,4.01,4.01,0,0,0,1.687,1.164,6.032,6.032,0,0,0,2.24.378,6.407,6.407,0,0,0,2.269-.378,4.6,4.6,0,0,0,1.775-1.164,5.663,5.663,0,0,0,1.193-2.007,10.161,10.161,0,0,0,.524-2.851c.087-2.182-.349-3.811-1.309-4.858a5.064,5.064,0,0,0-3.927-1.571,6.416,6.416,0,0,0-2.269.407,4.667,4.667,0,0,0-1.774,1.193,5.662,5.662,0,0,0-1.193,2.007A7.494,7.494,0,0,0,333.473,430.971Z" transform="translate(-234.13 -419.8)"/>
    </g>
    <path id="Path_232" data-name="Path 232" class="cls-1" d="M2.7,510.362H3.778l-.524,3.433H1.8Zm.233-1.862H4.36l-.291,1.484H2.615Z" transform="translate(-74.276 -745.576)"/>
    <path id="Path_233" data-name="Path 233" class="cls-1" d="M15.719,505.973h2.414l-.611,3h-.7l-.058-.553a2.378,2.378,0,0,1-.262.233,2.965,2.965,0,0,1-.436.233,1.88,1.88,0,0,1-.611.174,3.242,3.242,0,0,1-.785.087,3.624,3.624,0,0,1-1.222-.175,1.611,1.611,0,0,1-.756-.524,1.66,1.66,0,0,1-.32-.873,4.634,4.634,0,0,1,.087-1.222,4.963,4.963,0,0,1,.378-1.105,3.008,3.008,0,0,1,.7-.9,2.972,2.972,0,0,1,1.018-.611,3.624,3.624,0,0,1,1.309-.233,5.042,5.042,0,0,1,.931.087,2.251,2.251,0,0,1,.815.291,1.763,1.763,0,0,1,.553.582,1.583,1.583,0,0,1,.145.931H16.621a.861.861,0,0,0-.058-.291.634.634,0,0,0-.145-.233,1.273,1.273,0,0,0-.291-.175,1.761,1.761,0,0,0-.436-.058,1.35,1.35,0,0,0-.611.116,1.911,1.911,0,0,0-.495.349,1.651,1.651,0,0,0-.349.524,2.554,2.554,0,0,0-.2.669,5.224,5.224,0,0,0-.058.64,1.019,1.019,0,0,0,.495.873,1.154,1.154,0,0,0,.582.116,1.654,1.654,0,0,0,.9-.233,1.522,1.522,0,0,0,.553-.7h-.931Z" transform="translate(-81.766 -742.031)"/>
    <path id="Path_234" data-name="Path 234" class="cls-1" d="M38.516,510.967a2.376,2.376,0,0,1-.32.495,1.9,1.9,0,0,1-.524.436,4.21,4.21,0,0,1-.727.32,3.342,3.342,0,0,1-.96.116,2.222,2.222,0,0,1-1.658-.524,1.77,1.77,0,0,1-.291-1.658,3.878,3.878,0,0,1,.349-.931,2.7,2.7,0,0,1,.611-.669,2.529,2.529,0,0,1,.844-.407,3.694,3.694,0,0,1,.989-.145,3.03,3.03,0,0,1,.96.145,1.387,1.387,0,0,1,.989,1.193,2.793,2.793,0,0,1-.058,1.076l-.029.116h-3.4a1.3,1.3,0,0,0,.029.349.91.91,0,0,0,.145.291.5.5,0,0,0,.291.175.993.993,0,0,0,.436.058,1,1,0,0,0,.524-.146,2,2,0,0,0,.378-.32h1.425Zm-1.076-1.251a1.193,1.193,0,0,0-.029-.32.472.472,0,0,0-.145-.262A.424.424,0,0,0,37,508.96a.863.863,0,0,0-.407-.058,1.232,1.232,0,0,0-.756.233,1.623,1.623,0,0,0-.407.582Z" transform="translate(-97.087 -745.222)"/>
    <path id="Path_235" data-name="Path 235" class="cls-1" d="M52.044,508.216h1.309l-.116.582h0a2.356,2.356,0,0,1,.669-.495,2.167,2.167,0,0,1,.9-.2,1.575,1.575,0,0,1,.553.087.986.986,0,0,1,.407.262.852.852,0,0,1,.2.465,1.626,1.626,0,0,1-.029.64l-.553,2.647H54.051l.436-2.182c.116-.524-.058-.756-.524-.756a1.017,1.017,0,0,0-.64.233,1.1,1.1,0,0,0-.378.727l-.407,1.978H51.2Z" transform="translate(-109.306 -745.293)"/>
    <path id="Path_236" data-name="Path 236" class="cls-1" d="M73.816,510.967a2.375,2.375,0,0,1-.32.495,1.9,1.9,0,0,1-.524.436,4.209,4.209,0,0,1-.727.32,3.342,3.342,0,0,1-.96.116,2.222,2.222,0,0,1-1.658-.524,1.77,1.77,0,0,1-.291-1.658,3.878,3.878,0,0,1,.349-.931,2.7,2.7,0,0,1,.611-.669,2.529,2.529,0,0,1,.844-.407,3.694,3.694,0,0,1,.989-.145,3.03,3.03,0,0,1,.96.145,1.387,1.387,0,0,1,.989,1.193,2.793,2.793,0,0,1-.058,1.076l-.029.116H70.616a1.3,1.3,0,0,0,.029.349.91.91,0,0,0,.145.291.5.5,0,0,0,.291.175.993.993,0,0,0,.436.058,1,1,0,0,0,.524-.146,2,2,0,0,0,.378-.32h1.4Zm-1.047-1.251a1.193,1.193,0,0,0-.029-.32.472.472,0,0,0-.145-.262.424.424,0,0,0-.262-.175.863.863,0,0,0-.407-.058,1.232,1.232,0,0,0-.756.233,1.623,1.623,0,0,0-.407.582Z" transform="translate(-122.118 -745.222)"/>
    <path id="Path_237" data-name="Path 237" class="cls-1" d="M87.373,508.216h1.309l-.175.785h0a2.092,2.092,0,0,1,.7-.64,1.683,1.683,0,0,1,.873-.262h.233c.087,0,.145.029.2.029l-.291,1.484a2.356,2.356,0,0,0-.32-.087,1.923,1.923,0,0,0-.407-.029,1.311,1.311,0,0,0-.9.32,1.394,1.394,0,0,0-.436.873l-.32,1.571H86.5Z" transform="translate(-134.337 -745.293)"/>
    <path id="Path_238" data-name="Path 238" class="cls-1" d="M100.119,509.4a2.45,2.45,0,0,1,.378-.727,1.623,1.623,0,0,1,.582-.407,3.989,3.989,0,0,1,.7-.2,6.632,6.632,0,0,1,.785-.058,7.2,7.2,0,0,1,.844.058,1.841,1.841,0,0,1,.64.2.858.858,0,0,1,.378.407,1.1,1.1,0,0,1,.029.7l-.407,2.036a2.283,2.283,0,0,0-.058.407v.145c0,.058.029.116.029.174h-1.338c0-.058-.029-.116,0-.174v-.175a2.1,2.1,0,0,1-.785.436,4.519,4.519,0,0,1-.931.116c-1.105,0-1.571-.407-1.425-1.251a1.742,1.742,0,0,1,.233-.582,1.089,1.089,0,0,1,.349-.378,2.581,2.581,0,0,1,.495-.233,3.974,3.974,0,0,1,.669-.116l1.367-.116a.506.506,0,0,0,.349-.087.438.438,0,0,0,.116-.233.276.276,0,0,0-.145-.32,1.4,1.4,0,0,0-.611-.116,1.087,1.087,0,0,0-.582.116.829.829,0,0,0-.32.378h-1.338Zm2.822.9a1.847,1.847,0,0,1-.2.058c-.087.029-.2.029-.32.058l-.931.116a.819.819,0,0,0-.32.116c-.087.058-.116.145-.145.291a.343.343,0,0,0,.087.349.569.569,0,0,0,.407.116,1.762,1.762,0,0,0,.931-.233.984.984,0,0,0,.436-.669Z" transform="translate(-143.563 -745.222)"/>
    <path id="Path_239" data-name="Path 239" class="cls-1" d="M118.344,508.216h1.309l-.116.582h0a2.356,2.356,0,0,1,.669-.495,2.167,2.167,0,0,1,.9-.2,1.575,1.575,0,0,1,.553.087.986.986,0,0,1,.407.262.852.852,0,0,1,.2.465,1.626,1.626,0,0,1-.029.64l-.553,2.647h-1.338l.436-2.182c.116-.524-.058-.756-.524-.756a1.017,1.017,0,0,0-.64.233,1.1,1.1,0,0,0-.378.727l-.407,1.978H117.5Z" transform="translate(-156.319 -745.293)"/>
    <path id="Path_240" data-name="Path 240" class="cls-1" d="M138.412,508.645h0a2.094,2.094,0,0,1-1.455.64,2.1,2.1,0,0,1-.785-.145,1.164,1.164,0,0,1-.553-.436,1.252,1.252,0,0,1-.262-.669,2.625,2.625,0,0,1,.058-.931,2.729,2.729,0,0,1,.291-.815,2.433,2.433,0,0,1,.524-.669,2.083,2.083,0,0,1,.727-.465,2.125,2.125,0,0,1,.873-.175,1.53,1.53,0,0,1,.756.175.906.906,0,0,1,.407.465h0l.378-1.92h1.338l-1.105,5.411H138.3Zm.262-1.542a1.061,1.061,0,0,0-.087-.756.706.706,0,0,0-.669-.291,1.087,1.087,0,0,0-.756.262,1.461,1.461,0,0,0-.407.756.99.99,0,0,0,.087.756.736.736,0,0,0,.64.262.946.946,0,0,0,.756-.291A.856.856,0,0,0,138.674,507.1Z" transform="translate(-168.969 -742.173)"/>
    <path id="Path_241" data-name="Path 241" class="cls-1" d="M153.5,510.082a2.577,2.577,0,0,1,.96-1.629,3.169,3.169,0,0,1,1.891-.553,2.073,2.073,0,0,1,1.658.553,1.749,1.749,0,0,1,.262,1.629,2.578,2.578,0,0,1-.96,1.629,3.169,3.169,0,0,1-1.891.553,2.073,2.073,0,0,1-1.658-.553A1.732,1.732,0,0,1,153.5,510.082Zm2.618-1.135a1.147,1.147,0,0,0-.785.291,1.549,1.549,0,0,0-.436.844.976.976,0,0,0,.087.844.81.81,0,0,0,.669.291,1.1,1.1,0,0,0,.785-.291,1.549,1.549,0,0,0,.436-.844.976.976,0,0,0-.087-.844A.769.769,0,0,0,156.12,508.947Z" transform="translate(-181.791 -745.151)"/>
    <path id="Path_242" data-name="Path 242" class="cls-1" d="M186.5,506.862a4.261,4.261,0,0,1-.407.815,2.3,2.3,0,0,1-.611.7,2.831,2.831,0,0,1-.931.495,4.6,4.6,0,0,1-1.367.175,2.28,2.28,0,0,1-1.978-.727,2.417,2.417,0,0,1-.262-2.095,4.8,4.8,0,0,1,.407-1.193,2.576,2.576,0,0,1,.7-.873,3,3,0,0,1,.989-.553,4.416,4.416,0,0,1,1.309-.2,4.9,4.9,0,0,1,.96.087,1.985,1.985,0,0,1,.756.32,1.68,1.68,0,0,1,.495.669,2.625,2.625,0,0,1,.145,1.135h-1.658c0-.087-.029-.2-.029-.32a1.042,1.042,0,0,0-.116-.32.648.648,0,0,0-.291-.262,1.238,1.238,0,0,0-.495-.116,1.349,1.349,0,0,0-.611.116,1.774,1.774,0,0,0-.465.349,2.282,2.282,0,0,0-.32.524,2.415,2.415,0,0,0-.175.611,2.281,2.281,0,0,0-.058.611,1.522,1.522,0,0,0,.087.524.74.74,0,0,0,.32.349,1.154,1.154,0,0,0,.582.116,1.413,1.413,0,0,0,.873-.262,1.611,1.611,0,0,0,.524-.756H186.5Z" transform="translate(-201.228 -741.96)"/>
    <path id="Path_243" data-name="Path 243" class="cls-1" d="M201.719,509.4a2.449,2.449,0,0,1,.378-.727,1.623,1.623,0,0,1,.582-.407,3.99,3.99,0,0,1,.7-.2,6.632,6.632,0,0,1,.785-.058,7.2,7.2,0,0,1,.844.058,1.841,1.841,0,0,1,.64.2.858.858,0,0,1,.378.407,1.1,1.1,0,0,1,.029.7l-.407,2.036a2.283,2.283,0,0,0-.058.407v.145c0,.058.029.116.029.174h-1.338c0-.058-.029-.116,0-.174v-.175a2.1,2.1,0,0,1-.785.436,4.519,4.519,0,0,1-.931.116c-1.105,0-1.571-.407-1.425-1.251a1.743,1.743,0,0,1,.233-.582,1.089,1.089,0,0,1,.349-.378,2.581,2.581,0,0,1,.495-.233,3.974,3.974,0,0,1,.669-.116l1.367-.116a.506.506,0,0,0,.349-.087.438.438,0,0,0,.116-.233.276.276,0,0,0-.145-.32,1.4,1.4,0,0,0-.611-.116,1.087,1.087,0,0,0-.582.116.829.829,0,0,0-.32.378h-1.338Zm2.822.9a1.85,1.85,0,0,1-.2.058c-.087.029-.2.029-.32.058l-.931.116a.819.819,0,0,0-.32.116c-.087.058-.116.145-.145.291a.343.343,0,0,0,.087.349.569.569,0,0,0,.407.116,1.762,1.762,0,0,0,.931-.233.984.984,0,0,0,.436-.669Z" transform="translate(-215.607 -745.222)"/>
    <path id="Path_244" data-name="Path 244" class="cls-1" d="M220.235,503.6h1.338l-1.135,5.44H219.1Z" transform="translate(-228.363 -742.102)"/>
    <path id="Path_245" data-name="Path 245" class="cls-1" d="M227.615,505.025h1.338l-.815,4.014H226.8Zm.32-1.425h1.338l-.2.96h-1.338Z" transform="translate(-233.823 -742.102)"/>
    <path id="Path_246" data-name="Path 246" class="cls-1" d="M237.912,508.645h0a2.094,2.094,0,0,1-1.455.64,2.1,2.1,0,0,1-.785-.145,1.164,1.164,0,0,1-.553-.436,1.252,1.252,0,0,1-.262-.669,2.626,2.626,0,0,1,.058-.931,2.729,2.729,0,0,1,.291-.815,2.433,2.433,0,0,1,.524-.669,2.6,2.6,0,0,1,.727-.465,2.125,2.125,0,0,1,.873-.175,1.53,1.53,0,0,1,.756.175.906.906,0,0,1,.407.465h0l.378-1.92h1.338l-1.105,5.411H237.8Zm.291-1.542a1.061,1.061,0,0,0-.087-.756.771.771,0,0,0-.669-.291,1.087,1.087,0,0,0-.756.262,1.461,1.461,0,0,0-.407.756.99.99,0,0,0,.087.756.736.736,0,0,0,.64.262.946.946,0,0,0,.756-.291A1.014,1.014,0,0,0,238.2,507.1Z" transform="translate(-239.525 -742.173)"/>
    <path id="Path_247" data-name="Path 247" class="cls-1" d="M253.019,509.4a2.45,2.45,0,0,1,.378-.727,1.623,1.623,0,0,1,.582-.407,3.989,3.989,0,0,1,.7-.2,6.632,6.632,0,0,1,.785-.058,7.2,7.2,0,0,1,.844.058,1.841,1.841,0,0,1,.64.2.858.858,0,0,1,.378.407,1.1,1.1,0,0,1,.029.7l-.407,2.036a2.286,2.286,0,0,0-.058.407v.145c0,.029.029.116.029.174h-1.338c0-.058-.029-.116,0-.174v-.175a2.1,2.1,0,0,1-.785.436,4.519,4.519,0,0,1-.931.116c-1.105,0-1.571-.407-1.425-1.251a1.742,1.742,0,0,1,.233-.582,1.089,1.089,0,0,1,.349-.378,2.58,2.58,0,0,1,.495-.233,3.975,3.975,0,0,1,.669-.116l1.367-.116a.506.506,0,0,0,.349-.087.439.439,0,0,0,.116-.233.276.276,0,0,0-.145-.32,1.4,1.4,0,0,0-.611-.116,1.087,1.087,0,0,0-.582.116.829.829,0,0,0-.32.378h-1.338Zm2.822.9a1.847,1.847,0,0,1-.2.058c-.087.029-.2.029-.32.058l-.931.116a.819.819,0,0,0-.32.116c-.087.058-.116.145-.145.291a.343.343,0,0,0,.087.349.569.569,0,0,0,.407.116,1.762,1.762,0,0,0,.931-.233.984.984,0,0,0,.436-.669Z" transform="translate(-251.984 -745.222)"/>
    <path id="Path_248" data-name="Path 248" class="cls-1" d="M274.012,508.645h0a2.094,2.094,0,0,1-1.454.64,2.1,2.1,0,0,1-.785-.145,1.164,1.164,0,0,1-.553-.436,1.252,1.252,0,0,1-.262-.669,2.627,2.627,0,0,1,.058-.931,2.729,2.729,0,0,1,.291-.815,2.432,2.432,0,0,1,.524-.669,2.083,2.083,0,0,1,.727-.465,2.125,2.125,0,0,1,.873-.175,1.53,1.53,0,0,1,.756.175.906.906,0,0,1,.407.465h0l.378-1.92h1.338l-1.105,5.411H273.9Zm.291-1.542a1.062,1.062,0,0,0-.087-.756.771.771,0,0,0-.669-.291,1.087,1.087,0,0,0-.756.262,1.461,1.461,0,0,0-.407.756.99.99,0,0,0,.087.756.736.736,0,0,0,.64.262.946.946,0,0,0,.756-.291A.927.927,0,0,0,274.3,507.1Z" transform="translate(-265.123 -742.173)"/>
    <path id="Path_249" data-name="Path 249" class="cls-1" d="M300.912,508.645h0a2.094,2.094,0,0,1-1.454.64,2.1,2.1,0,0,1-.785-.145,1.164,1.164,0,0,1-.553-.436,1.252,1.252,0,0,1-.262-.669,2.625,2.625,0,0,1,.058-.931,2.729,2.729,0,0,1,.291-.815,2.432,2.432,0,0,1,.524-.669,2.6,2.6,0,0,1,.727-.465,2.125,2.125,0,0,1,.873-.175,1.53,1.53,0,0,1,.756.175.906.906,0,0,1,.407.465h0l.378-1.92h1.338l-1.105,5.411H300.8Zm.291-1.542a1.061,1.061,0,0,0-.087-.756.771.771,0,0,0-.669-.291,1.087,1.087,0,0,0-.756.262,1.461,1.461,0,0,0-.407.756.99.99,0,0,0,.087.756.736.736,0,0,0,.64.262.946.946,0,0,0,.756-.291A.927.927,0,0,0,301.2,507.1Z" transform="translate(-284.198 -742.173)"/>
    <path id="Path_250" data-name="Path 250" class="cls-1" d="M320.716,510.967a2.376,2.376,0,0,1-.32.495,1.9,1.9,0,0,1-.524.436,4.212,4.212,0,0,1-.727.32,3.342,3.342,0,0,1-.96.116,2.222,2.222,0,0,1-1.658-.524,1.77,1.77,0,0,1-.291-1.658,3.879,3.879,0,0,1,.349-.931,2.7,2.7,0,0,1,.611-.669,2.529,2.529,0,0,1,.844-.407,3.694,3.694,0,0,1,.989-.145,3.03,3.03,0,0,1,.96.145,1.387,1.387,0,0,1,.989,1.193,2.794,2.794,0,0,1-.058,1.076l-.029.116h-3.345a1.306,1.306,0,0,0,.029.349.911.911,0,0,0,.145.291.5.5,0,0,0,.291.175.993.993,0,0,0,.436.058,1,1,0,0,0,.524-.146,2,2,0,0,0,.378-.32h1.367Zm-1.076-1.251a1.193,1.193,0,0,0-.029-.32.472.472,0,0,0-.145-.262.424.424,0,0,0-.262-.175.863.863,0,0,0-.407-.058,1.232,1.232,0,0,0-.756.233,1.623,1.623,0,0,0-.407.582Z" transform="translate(-297.195 -745.222)"/>
    <path id="Path_251" data-name="Path 251" class="cls-1" d="M341.1,504.1h1.658l.378,3.782h0l1.92-3.782h1.658l-3.113,5.294H342Z" transform="translate(-314.873 -742.456)"/>
    <path id="Path_252" data-name="Path 252" class="cls-1" d="M358.815,505.025h1.338l-.814,4.014H358Zm.291-1.425h1.338l-.2.96H358.9Z" transform="translate(-326.857 -742.102)"/>
    <path id="Path_253" data-name="Path 253" class="cls-1" d="M369.112,508.645h0a2.094,2.094,0,0,1-1.454.64,2.1,2.1,0,0,1-.785-.145,1.164,1.164,0,0,1-.553-.436,1.251,1.251,0,0,1-.262-.669,2.626,2.626,0,0,1,.058-.931,2.728,2.728,0,0,1,.291-.815,2.433,2.433,0,0,1,.524-.669,2.6,2.6,0,0,1,.727-.465,2.125,2.125,0,0,1,.873-.175,1.53,1.53,0,0,1,.756.175.906.906,0,0,1,.407.465h0l.378-1.92h1.338l-1.105,5.411H369Zm.291-1.542a1.062,1.062,0,0,0-.087-.756.771.771,0,0,0-.669-.291,1.087,1.087,0,0,0-.756.262,1.461,1.461,0,0,0-.407.756.99.99,0,0,0,.087.756.736.736,0,0,0,.64.262.946.946,0,0,0,.756-.291A1.014,1.014,0,0,0,369.4,507.1Z" transform="translate(-332.558 -742.173)"/>
    <path id="Path_254" data-name="Path 254" class="cls-1" d="M384.219,509.4a2.448,2.448,0,0,1,.378-.727,1.623,1.623,0,0,1,.582-.407,3.989,3.989,0,0,1,.7-.2,6.632,6.632,0,0,1,.785-.058,7.2,7.2,0,0,1,.844.058,1.84,1.84,0,0,1,.64.2.858.858,0,0,1,.378.407,1.1,1.1,0,0,1,.029.7l-.407,2.036a2.285,2.285,0,0,0-.058.407v.145c0,.029.029.116.029.174h-1.338c0-.058-.029-.116,0-.174v-.175a2.1,2.1,0,0,1-.785.436,4.519,4.519,0,0,1-.931.116c-1.105,0-1.571-.407-1.425-1.251a1.744,1.744,0,0,1,.233-.582,1.089,1.089,0,0,1,.349-.378,2.581,2.581,0,0,1,.495-.233,3.974,3.974,0,0,1,.669-.116l1.367-.116a.506.506,0,0,0,.349-.087.439.439,0,0,0,.116-.233.276.276,0,0,0-.145-.32,1.4,1.4,0,0,0-.611-.116,1.087,1.087,0,0,0-.582.116.829.829,0,0,0-.32.378h-1.338Zm2.822.9a1.849,1.849,0,0,1-.2.058c-.087.029-.2.029-.32.058l-.931.116a.819.819,0,0,0-.32.116c-.087.058-.116.145-.145.291a.343.343,0,0,0,.087.349.569.569,0,0,0,.407.116,1.762,1.762,0,0,0,.931-.233.984.984,0,0,0,.436-.669Z" transform="translate(-345.018 -745.222)"/>
    <path id="Path_255" data-name="Path 255" class="cls-1" d="M402.491,507.94h1.425l-.291,1.484H402.2Zm.785-3.84h1.454l-.9,3.433h-1.076Z" transform="translate(-358.199 -742.456)"/>
  </g>
</svg>
