<svg xmlns="http://www.w3.org/2000/svg" xmlns:xlink="http://www.w3.org/1999/xlink" viewBox="1521 -1926 1920 1079.85">
  <defs>
    <style>
      .cls-1, .cls-4 {
        fill: none;
      }

      .cls-2 {
        opacity: 0.7;
      }

      .cls-3 {
        clip-path: url(#clip-path);
      }

      .cls-4 {
        stroke: #4d4d4d;
        stroke-miterlimit: 10;
        stroke-width: 2px;
        opacity: 0.5;
      }
    </style>
    <clipPath id="clip-path">
      <rect id="Rectangle_2" data-name="Rectangle 2" class="cls-1" width="1920" height="1079.85" transform="translate(1081.07 0.71)"/>
    </clipPath>
  </defs>
  <g id="Recurso_1" data-name="Recurso 1" class="cls-2" transform="translate(439.93 -1926.71)">
    <g id="Capa_1" data-name="Capa 1">
      <g id="Group_2" data-name="Group 2" class="cls-3">
        <line id="Line_149" data-name="Line 149" class="cls-4" y1="1080.36" x2="1080.36" transform="translate(0.71 0.71)"/>
        <line id="Line_150" data-name="Line 150" class="cls-4" y1="1080.36" x2="1080.37" transform="translate(10.53 0.71)"/>
        <line id="Line_151" data-name="Line 151" class="cls-4" y1="1080.36" x2="1080.36" transform="translate(20.36 0.71)"/>
        <line id="Line_152" data-name="Line 152" class="cls-4" y1="1080.36" x2="1080.37" transform="translate(30.18 0.71)"/>
        <line id="Line_153" data-name="Line 153" class="cls-4" y1="1080.36" x2="1080.36" transform="translate(40.01 0.71)"/>
        <line id="Line_154" data-name="Line 154" class="cls-4" y1="1080.36" x2="1080.37" transform="translate(49.83 0.71)"/>
        <line id="Line_155" data-name="Line 155" class="cls-4" y1="1080.36" x2="1080.36" transform="translate(59.66 0.71)"/>
        <line id="Line_156" data-name="Line 156" class="cls-4" y1="1080.36" x2="1080.37" transform="translate(69.48 0.71)"/>
        <line id="Line_157" data-name="Line 157" class="cls-4" y1="1080.36" x2="1080.36" transform="translate(79.31 0.71)"/>
        <line id="Line_158" data-name="Line 158" class="cls-4" y1="1080.36" x2="1080.37" transform="translate(89.13 0.71)"/>
        <line id="Line_159" data-name="Line 159" class="cls-4" y1="1080.36" x2="1080.36" transform="translate(98.96 0.71)"/>
        <line id="Line_160" data-name="Line 160" class="cls-4" y1="1080.36" x2="1080.37" transform="translate(108.78 0.71)"/>
        <line id="Line_161" data-name="Line 161" class="cls-4" y1="1080.36" x2="1080.36" transform="translate(118.61 0.71)"/>
        <line id="Line_162" data-name="Line 162" class="cls-4" y1="1080.36" x2="1080.37" transform="translate(128.43 0.71)"/>
        <line id="Line_163" data-name="Line 163" class="cls-4" y1="1080.36" x2="1080.37" transform="translate(138.25 0.71)"/>
        <line id="Line_164" data-name="Line 164" class="cls-4" y1="1080.36" x2="1080.37" transform="translate(148.08 0.71)"/>
        <line id="Line_165" data-name="Line 165" class="cls-4" y1="1080.36" x2="1080.37" transform="translate(157.9 0.71)"/>
        <line id="Line_166" data-name="Line 166" class="cls-4" y1="1080.36" x2="1080.37" transform="translate(167.73 0.71)"/>
        <line id="Line_167" data-name="Line 167" class="cls-4" y1="1080.36" x2="1080.37" transform="translate(177.55 0.71)"/>
        <line id="Line_168" data-name="Line 168" class="cls-4" y1="1080.36" x2="1080.37" transform="translate(187.38 0.71)"/>
        <line id="Line_169" data-name="Line 169" class="cls-4" y1="1080.36" x2="1080.37" transform="translate(197.2 0.71)"/>
        <line id="Line_170" data-name="Line 170" class="cls-4" y1="1080.36" x2="1080.37" transform="translate(207.03 0.71)"/>
        <line id="Line_171" data-name="Line 171" class="cls-4" y1="1080.36" x2="1080.37" transform="translate(216.85 0.71)"/>
        <line id="Line_172" data-name="Line 172" class="cls-4" y1="1080.36" x2="1080.37" transform="translate(226.68 0.71)"/>
        <line id="Line_173" data-name="Line 173" class="cls-4" y1="1080.36" x2="1080.37" transform="translate(236.5 0.71)"/>
        <line id="Line_174" data-name="Line 174" class="cls-4" y1="1080.36" x2="1080.36" transform="translate(246.33 0.71)"/>
        <line id="Line_175" data-name="Line 175" class="cls-4" y1="1080.36" x2="1080.37" transform="translate(256.15 0.71)"/>
        <line id="Line_176" data-name="Line 176" class="cls-4" y1="1080.36" x2="1080.36" transform="translate(265.98 0.71)"/>
        <line id="Line_177" data-name="Line 177" class="cls-4" y1="1080.36" x2="1080.37" transform="translate(275.8 0.71)"/>
        <line id="Line_178" data-name="Line 178" class="cls-4" y1="1080.36" x2="1080.36" transform="translate(285.63 0.71)"/>
        <line id="Line_179" data-name="Line 179" class="cls-4" y1="1080.36" x2="1080.37" transform="translate(295.45 0.71)"/>
        <line id="Line_180" data-name="Line 180" class="cls-4" y1="1080.36" x2="1080.36" transform="translate(305.28 0.71)"/>
        <line id="Line_181" data-name="Line 181" class="cls-4" y1="1080.36" x2="1080.37" transform="translate(315.1 0.71)"/>
        <line id="Line_182" data-name="Line 182" class="cls-4" y1="1080.36" x2="1080.36" transform="translate(324.93 0.71)"/>
        <line id="Line_183" data-name="Line 183" class="cls-4" y1="1080.36" x2="1080.37" transform="translate(334.75 0.71)"/>
        <line id="Line_184" data-name="Line 184" class="cls-4" y1="1080.36" x2="1080.36" transform="translate(344.58 0.71)"/>
        <line id="Line_185" data-name="Line 185" class="cls-4" y1="1080.36" x2="1080.37" transform="translate(354.4 0.71)"/>
        <line id="Line_186" data-name="Line 186" class="cls-4" y1="1080.36" x2="1080.36" transform="translate(364.23 0.71)"/>
        <line id="Line_187" data-name="Line 187" class="cls-4" y1="1080.36" x2="1080.37" transform="translate(374.05 0.71)"/>
        <line id="Line_188" data-name="Line 188" class="cls-4" y1="1080.36" x2="1080.36" transform="translate(383.88 0.71)"/>
        <line id="Line_189" data-name="Line 189" class="cls-4" y1="1080.36" x2="1080.37" transform="translate(393.7 0.71)"/>
        <line id="Line_190" data-name="Line 190" class="cls-4" y1="1080.36" x2="1080.36" transform="translate(403.53 0.71)"/>
        <line id="Line_191" data-name="Line 191" class="cls-4" y1="1080.36" x2="1080.37" transform="translate(413.35 0.71)"/>
        <line id="Line_192" data-name="Line 192" class="cls-4" y1="1080.36" x2="1080.36" transform="translate(423.18 0.71)"/>
        <line id="Line_193" data-name="Line 193" class="cls-4" y1="1080.36" x2="1080.37" transform="translate(433 0.71)"/>
        <line id="Line_194" data-name="Line 194" class="cls-4" y1="1080.36" x2="1080.37" transform="translate(442.82 0.71)"/>
        <line id="Line_195" data-name="Line 195" class="cls-4" y1="1080.36" x2="1080.37" transform="translate(452.65 0.71)"/>
        <line id="Line_196" data-name="Line 196" class="cls-4" y1="1080.36" x2="1080.37" transform="translate(462.47 0.71)"/>
        <line id="Line_197" data-name="Line 197" class="cls-4" y1="1080.36" x2="1080.37" transform="translate(472.3 0.71)"/>
        <line id="Line_198" data-name="Line 198" class="cls-4" y1="1080.36" x2="1080.37" transform="translate(482.12 0.71)"/>
        <line id="Line_199" data-name="Line 199" class="cls-4" y1="1080.36" x2="1080.37" transform="translate(491.95 0.71)"/>
        <line id="Line_200" data-name="Line 200" class="cls-4" y1="1080.36" x2="1080.37" transform="translate(501.77 0.71)"/>
        <line id="Line_201" data-name="Line 201" class="cls-4" y1="1080.36" x2="1080.37" transform="translate(511.6 0.71)"/>
        <line id="Line_202" data-name="Line 202" class="cls-4" y1="1080.36" x2="1080.37" transform="translate(521.42 0.71)"/>
        <line id="Line_203" data-name="Line 203" class="cls-4" y1="1080.36" x2="1080.37" transform="translate(531.25 0.71)"/>
        <line id="Line_204" data-name="Line 204" class="cls-4" y1="1080.36" x2="1080.37" transform="translate(541.07 0.71)"/>
        <line id="Line_205" data-name="Line 205" class="cls-4" y1="1080.36" x2="1080.36" transform="translate(550.9 0.71)"/>
        <line id="Line_206" data-name="Line 206" class="cls-4" y1="1080.36" x2="1080.37" transform="translate(560.72 0.71)"/>
        <line id="Line_207" data-name="Line 207" class="cls-4" y1="1080.36" x2="1080.36" transform="translate(570.55 0.71)"/>
        <line id="Line_208" data-name="Line 208" class="cls-4" y1="1080.36" x2="1080.37" transform="translate(580.37 0.71)"/>
        <line id="Line_209" data-name="Line 209" class="cls-4" y1="1080.36" x2="1080.36" transform="translate(590.2 0.71)"/>
        <line id="Line_210" data-name="Line 210" class="cls-4" y1="1080.36" x2="1080.37" transform="translate(600.02 0.71)"/>
        <line id="Line_211" data-name="Line 211" class="cls-4" y1="1080.36" x2="1080.36" transform="translate(609.85 0.71)"/>
        <line id="Line_212" data-name="Line 212" class="cls-4" y1="1080.36" x2="1080.37" transform="translate(619.67 0.71)"/>
        <line id="Line_213" data-name="Line 213" class="cls-4" y1="1080.36" x2="1080.36" transform="translate(629.5 0.71)"/>
        <line id="Line_214" data-name="Line 214" class="cls-4" y1="1080.36" x2="1080.37" transform="translate(639.32 0.71)"/>
        <line id="Line_215" data-name="Line 215" class="cls-4" y1="1080.36" x2="1080.36" transform="translate(649.15 0.71)"/>
        <line id="Line_216" data-name="Line 216" class="cls-4" y1="1080.36" x2="1080.37" transform="translate(658.97 0.71)"/>
        <line id="Line_217" data-name="Line 217" class="cls-4" y1="1080.36" x2="1080.36" transform="translate(668.8 0.71)"/>
        <line id="Line_218" data-name="Line 218" class="cls-4" y1="1080.36" x2="1080.37" transform="translate(678.62 0.71)"/>
        <line id="Line_219" data-name="Line 219" class="cls-4" y1="1080.36" x2="1080.36" transform="translate(688.45 0.71)"/>
        <line id="Line_220" data-name="Line 220" class="cls-4" y1="1080.36" x2="1080.37" transform="translate(698.27 0.71)"/>
        <line id="Line_221" data-name="Line 221" class="cls-4" y1="1080.36" x2="1080.36" transform="translate(708.1 0.71)"/>
        <line id="Line_222" data-name="Line 222" class="cls-4" y1="1080.36" x2="1080.37" transform="translate(717.92 0.71)"/>
        <line id="Line_223" data-name="Line 223" class="cls-4" y1="1080.36" x2="1080.36" transform="translate(727.75 0.71)"/>
        <line id="Line_224" data-name="Line 224" class="cls-4" y1="1080.36" x2="1080.37" transform="translate(737.57 0.71)"/>
        <line id="Line_225" data-name="Line 225" class="cls-4" y1="1080.36" x2="1080.36" transform="translate(747.4 0.71)"/>
        <line id="Line_226" data-name="Line 226" class="cls-4" y1="1080.36" x2="1080.37" transform="translate(757.22 0.71)"/>
        <line id="Line_227" data-name="Line 227" class="cls-4" y1="1080.36" x2="1080.37" transform="translate(767.04 0.71)"/>
        <line id="Line_228" data-name="Line 228" class="cls-4" y1="1080.36" x2="1080.37" transform="translate(776.87 0.71)"/>
        <line id="Line_229" data-name="Line 229" class="cls-4" y1="1080.36" x2="1080.37" transform="translate(786.69 0.71)"/>
        <line id="Line_230" data-name="Line 230" class="cls-4" y1="1080.36" x2="1080.37" transform="translate(796.52 0.71)"/>
        <line id="Line_231" data-name="Line 231" class="cls-4" y1="1080.36" x2="1080.37" transform="translate(806.34 0.71)"/>
        <line id="Line_232" data-name="Line 232" class="cls-4" y1="1080.36" x2="1080.37" transform="translate(816.17 0.71)"/>
        <line id="Line_233" data-name="Line 233" class="cls-4" y1="1080.36" x2="1080.37" transform="translate(825.99 0.71)"/>
        <line id="Line_234" data-name="Line 234" class="cls-4" y1="1080.36" x2="1080.37" transform="translate(835.82 0.71)"/>
        <line id="Line_235" data-name="Line 235" class="cls-4" y1="1080.36" x2="1080.37" transform="translate(845.64 0.71)"/>
        <line id="Line_236" data-name="Line 236" class="cls-4" y1="1080.36" x2="1080.36" transform="translate(855.47 0.71)"/>
        <line id="Line_237" data-name="Line 237" class="cls-4" y1="1080.36" x2="1080.37" transform="translate(865.29 0.71)"/>
        <line id="Line_238" data-name="Line 238" class="cls-4" y1="1080.36" x2="1080.36" transform="translate(875.12 0.71)"/>
        <line id="Line_239" data-name="Line 239" class="cls-4" y1="1080.36" x2="1080.37" transform="translate(884.94 0.71)"/>
        <line id="Line_240" data-name="Line 240" class="cls-4" y1="1080.36" x2="1080.36" transform="translate(894.77 0.71)"/>
        <line id="Line_241" data-name="Line 241" class="cls-4" y1="1080.36" x2="1080.37" transform="translate(904.59 0.71)"/>
        <line id="Line_242" data-name="Line 242" class="cls-4" y1="1080.36" x2="1080.36" transform="translate(914.42 0.71)"/>
        <line id="Line_243" data-name="Line 243" class="cls-4" y1="1080.36" x2="1080.37" transform="translate(924.24 0.71)"/>
        <line id="Line_244" data-name="Line 244" class="cls-4" y1="1080.36" x2="1080.36" transform="translate(934.07 0.71)"/>
        <line id="Line_245" data-name="Line 245" class="cls-4" y1="1080.36" x2="1080.37" transform="translate(943.89 0.71)"/>
        <line id="Line_246" data-name="Line 246" class="cls-4" y1="1080.36" x2="1080.36" transform="translate(953.72 0.71)"/>
        <line id="Line_247" data-name="Line 247" class="cls-4" y1="1080.36" x2="1080.37" transform="translate(963.54 0.71)"/>
        <line id="Line_248" data-name="Line 248" class="cls-4" y1="1080.36" x2="1080.36" transform="translate(973.37 0.71)"/>
        <line id="Line_249" data-name="Line 249" class="cls-4" y1="1080.36" x2="1080.37" transform="translate(983.19 0.71)"/>
        <line id="Line_250" data-name="Line 250" class="cls-4" y1="1080.36" x2="1080.36" transform="translate(993.02 0.71)"/>
        <line id="Line_251" data-name="Line 251" class="cls-4" y1="1080.36" x2="1080.37" transform="translate(1002.84 0.71)"/>
        <line id="Line_252" data-name="Line 252" class="cls-4" y1="1080.36" x2="1080.36" transform="translate(1012.67 0.71)"/>
        <line id="Line_253" data-name="Line 253" class="cls-4" y1="1080.36" x2="1080.37" transform="translate(1022.49 0.71)"/>
        <line id="Line_254" data-name="Line 254" class="cls-4" y1="1080.36" x2="1080.36" transform="translate(1032.32 0.71)"/>
        <line id="Line_255" data-name="Line 255" class="cls-4" y1="1080.36" x2="1080.37" transform="translate(1042.14 0.71)"/>
        <line id="Line_256" data-name="Line 256" class="cls-4" y1="1080.36" x2="1080.36" transform="translate(1051.97 0.71)"/>
        <line id="Line_257" data-name="Line 257" class="cls-4" y1="1080.36" x2="1080.37" transform="translate(1061.79 0.71)"/>
        <line id="Line_258" data-name="Line 258" class="cls-4" y1="1080.36" x2="1080.37" transform="translate(1071.61 0.71)"/>
        <line id="Line_259" data-name="Line 259" class="cls-4" y1="1080.36" x2="1080.37" transform="translate(1081.44 0.71)"/>
        <line id="Line_260" data-name="Line 260" class="cls-4" y1="1080.36" x2="1080.37" transform="translate(1091.26 0.71)"/>
        <line id="Line_261" data-name="Line 261" class="cls-4" y1="1080.36" x2="1080.37" transform="translate(1101.09 0.71)"/>
        <line id="Line_262" data-name="Line 262" class="cls-4" y1="1080.36" x2="1080.37" transform="translate(1110.91 0.71)"/>
        <line id="Line_263" data-name="Line 263" class="cls-4" y1="1080.36" x2="1080.37" transform="translate(1120.74 0.71)"/>
        <line id="Line_264" data-name="Line 264" class="cls-4" y1="1080.36" x2="1080.37" transform="translate(1130.56 0.71)"/>
        <line id="Line_265" data-name="Line 265" class="cls-4" y1="1080.36" x2="1080.37" transform="translate(1140.39 0.71)"/>
        <line id="Line_266" data-name="Line 266" class="cls-4" y1="1080.36" x2="1080.37" transform="translate(1150.21 0.71)"/>
        <line id="Line_267" data-name="Line 267" class="cls-4" y1="1080.36" x2="1080.37" transform="translate(1160.04 0.71)"/>
        <line id="Line_268" data-name="Line 268" class="cls-4" y1="1080.36" x2="1080.37" transform="translate(1169.86 0.71)"/>
        <line id="Line_269" data-name="Line 269" class="cls-4" y1="1080.36" x2="1080.36" transform="translate(1179.69 0.71)"/>
        <line id="Line_270" data-name="Line 270" class="cls-4" y1="1080.36" x2="1080.37" transform="translate(1189.51 0.71)"/>
        <line id="Line_271" data-name="Line 271" class="cls-4" y1="1080.36" x2="1080.36" transform="translate(1199.34 0.71)"/>
        <line id="Line_272" data-name="Line 272" class="cls-4" y1="1080.36" x2="1080.37" transform="translate(1209.16 0.71)"/>
        <line id="Line_273" data-name="Line 273" class="cls-4" y1="1080.36" x2="1080.36" transform="translate(1218.99 0.71)"/>
        <line id="Line_274" data-name="Line 274" class="cls-4" y1="1080.36" x2="1080.37" transform="translate(1228.81 0.71)"/>
        <line id="Line_275" data-name="Line 275" class="cls-4" y1="1080.36" x2="1080.36" transform="translate(1238.64 0.71)"/>
        <line id="Line_276" data-name="Line 276" class="cls-4" y1="1080.36" x2="1080.37" transform="translate(1248.46 0.71)"/>
        <line id="Line_277" data-name="Line 277" class="cls-4" y1="1080.36" x2="1080.36" transform="translate(1258.29 0.71)"/>
        <line id="Line_278" data-name="Line 278" class="cls-4" y1="1080.36" x2="1080.37" transform="translate(1268.11 0.71)"/>
        <line id="Line_279" data-name="Line 279" class="cls-4" y1="1080.36" x2="1080.36" transform="translate(1277.94 0.71)"/>
        <line id="Line_280" data-name="Line 280" class="cls-4" y1="1080.36" x2="1080.37" transform="translate(1287.76 0.71)"/>
        <line id="Line_281" data-name="Line 281" class="cls-4" y1="1080.36" x2="1080.36" transform="translate(1297.59 0.71)"/>
        <line id="Line_282" data-name="Line 282" class="cls-4" y1="1080.36" x2="1080.37" transform="translate(1307.41 0.71)"/>
        <line id="Line_283" data-name="Line 283" class="cls-4" y1="1080.36" x2="1080.36" transform="translate(1317.24 0.71)"/>
        <line id="Line_284" data-name="Line 284" class="cls-4" y1="1080.36" x2="1080.37" transform="translate(1327.06 0.71)"/>
        <line id="Line_285" data-name="Line 285" class="cls-4" y1="1080.36" x2="1080.36" transform="translate(1336.89 0.71)"/>
        <line id="Line_286" data-name="Line 286" class="cls-4" y1="1080.36" x2="1080.37" transform="translate(1346.71 0.71)"/>
        <line id="Line_287" data-name="Line 287" class="cls-4" y1="1080.36" x2="1080.36" transform="translate(1356.54 0.71)"/>
        <line id="Line_288" data-name="Line 288" class="cls-4" y1="1080.36" x2="1080.37" transform="translate(1366.36 0.71)"/>
        <line id="Line_289" data-name="Line 289" class="cls-4" y1="1080.36" x2="1080.37" transform="translate(1376.18 0.71)"/>
        <line id="Line_290" data-name="Line 290" class="cls-4" y1="1080.36" x2="1080.37" transform="translate(1386.01 0.71)"/>
        <line id="Line_291" data-name="Line 291" class="cls-4" y1="1080.36" x2="1080.37" transform="translate(1395.83 0.71)"/>
        <line id="Line_292" data-name="Line 292" class="cls-4" y1="1080.36" x2="1080.37" transform="translate(1405.66 0.71)"/>
        <line id="Line_293" data-name="Line 293" class="cls-4" y1="1080.36" x2="1080.37" transform="translate(1415.48 0.71)"/>
        <line id="Line_294" data-name="Line 294" class="cls-4" y1="1080.36" x2="1080.37" transform="translate(1425.31 0.71)"/>
        <line id="Line_295" data-name="Line 295" class="cls-4" y1="1080.36" x2="1080.37" transform="translate(1435.13 0.71)"/>
        <line id="Line_296" data-name="Line 296" class="cls-4" y1="1080.36" x2="1080.37" transform="translate(1444.96 0.71)"/>
        <line id="Line_297" data-name="Line 297" class="cls-4" y1="1080.36" x2="1080.37" transform="translate(1454.78 0.71)"/>
        <line id="Line_298" data-name="Line 298" class="cls-4" y1="1080.36" x2="1080.37" transform="translate(1464.61 0.71)"/>
        <line id="Line_299" data-name="Line 299" class="cls-4" y1="1080.36" x2="1080.37" transform="translate(1474.43 0.71)"/>
        <line id="Line_300" data-name="Line 300" class="cls-4" y1="1080.36" x2="1080.36" transform="translate(1484.26 0.71)"/>
        <line id="Line_301" data-name="Line 301" class="cls-4" y1="1080.36" x2="1080.37" transform="translate(1494.08 0.71)"/>
        <line id="Line_302" data-name="Line 302" class="cls-4" y1="1080.36" x2="1080.36" transform="translate(1503.91 0.71)"/>
        <line id="Line_303" data-name="Line 303" class="cls-4" y1="1080.36" x2="1080.37" transform="translate(1513.73 0.71)"/>
        <line id="Line_304" data-name="Line 304" class="cls-4" y1="1080.36" x2="1080.36" transform="translate(1523.56 0.71)"/>
        <line id="Line_305" data-name="Line 305" class="cls-4" y1="1080.36" x2="1080.37" transform="translate(1533.38 0.71)"/>
        <line id="Line_306" data-name="Line 306" class="cls-4" y1="1080.36" x2="1080.36" transform="translate(1543.21 0.71)"/>
        <line id="Line_307" data-name="Line 307" class="cls-4" y1="1080.36" x2="1080.37" transform="translate(1553.03 0.71)"/>
        <line id="Line_308" data-name="Line 308" class="cls-4" y1="1080.36" x2="1080.36" transform="translate(1562.86 0.71)"/>
        <line id="Line_309" data-name="Line 309" class="cls-4" y1="1080.36" x2="1080.37" transform="translate(1572.68 0.71)"/>
        <line id="Line_310" data-name="Line 310" class="cls-4" y1="1080.36" x2="1080.36" transform="translate(1582.51 0.71)"/>
        <line id="Line_311" data-name="Line 311" class="cls-4" y1="1080.36" x2="1080.37" transform="translate(1592.33 0.71)"/>
        <line id="Line_312" data-name="Line 312" class="cls-4" y1="1080.36" x2="1080.36" transform="translate(1602.16 0.71)"/>
        <line id="Line_313" data-name="Line 313" class="cls-4" y1="1080.36" x2="1080.37" transform="translate(1611.98 0.71)"/>
        <line id="Line_314" data-name="Line 314" class="cls-4" y1="1080.36" x2="1080.36" transform="translate(1621.81 0.71)"/>
        <line id="Line_315" data-name="Line 315" class="cls-4" y1="1080.36" x2="1080.37" transform="translate(1631.63 0.71)"/>
        <line id="Line_316" data-name="Line 316" class="cls-4" y1="1080.36" x2="1080.36" transform="translate(1641.46 0.71)"/>
        <line id="Line_317" data-name="Line 317" class="cls-4" y1="1080.36" x2="1080.37" transform="translate(1651.28 0.71)"/>
        <line id="Line_318" data-name="Line 318" class="cls-4" y1="1080.36" x2="1080.36" transform="translate(1661.11 0.71)"/>
        <line id="Line_319" data-name="Line 319" class="cls-4" y1="1080.36" x2="1080.37" transform="translate(1670.93 0.71)"/>
        <line id="Line_320" data-name="Line 320" class="cls-4" y1="1080.36" x2="1080.37" transform="translate(1680.75 0.71)"/>
        <line id="Line_321" data-name="Line 321" class="cls-4" y1="1080.36" x2="1080.37" transform="translate(1690.58 0.71)"/>
        <line id="Line_322" data-name="Line 322" class="cls-4" y1="1080.36" x2="1080.37" transform="translate(1700.4 0.71)"/>
        <line id="Line_323" data-name="Line 323" class="cls-4" y1="1080.36" x2="1080.37" transform="translate(1710.23 0.71)"/>
        <line id="Line_324" data-name="Line 324" class="cls-4" y1="1080.36" x2="1080.37" transform="translate(1720.05 0.71)"/>
        <line id="Line_325" data-name="Line 325" class="cls-4" y1="1080.36" x2="1080.37" transform="translate(1729.88 0.71)"/>
        <line id="Line_326" data-name="Line 326" class="cls-4" y1="1080.36" x2="1080.37" transform="translate(1739.7 0.71)"/>
        <line id="Line_327" data-name="Line 327" class="cls-4" y1="1080.36" x2="1080.37" transform="translate(1749.53 0.71)"/>
        <line id="Line_328" data-name="Line 328" class="cls-4" y1="1080.36" x2="1080.37" transform="translate(1759.35 0.71)"/>
        <line id="Line_329" data-name="Line 329" class="cls-4" y1="1080.36" x2="1080.37" transform="translate(1769.18 0.71)"/>
        <line id="Line_330" data-name="Line 330" class="cls-4" y1="1080.36" x2="1080.37" transform="translate(1779 0.71)"/>
        <line id="Line_331" data-name="Line 331" class="cls-4" y1="1080.36" x2="1080.36" transform="translate(1788.83 0.71)"/>
        <line id="Line_332" data-name="Line 332" class="cls-4" y1="1080.36" x2="1080.37" transform="translate(1798.65 0.71)"/>
        <line id="Line_333" data-name="Line 333" class="cls-4" y1="1080.36" x2="1080.36" transform="translate(1808.48 0.71)"/>
        <line id="Line_334" data-name="Line 334" class="cls-4" y1="1080.36" x2="1080.37" transform="translate(1818.3 0.71)"/>
        <line id="Line_335" data-name="Line 335" class="cls-4" y1="1080.36" x2="1080.36" transform="translate(1828.13 0.71)"/>
        <line id="Line_336" data-name="Line 336" class="cls-4" y1="1080.36" x2="1080.37" transform="translate(1837.95 0.71)"/>
        <line id="Line_337" data-name="Line 337" class="cls-4" y1="1080.36" x2="1080.36" transform="translate(1847.78 0.71)"/>
        <line id="Line_338" data-name="Line 338" class="cls-4" y1="1080.36" x2="1080.37" transform="translate(1857.6 0.71)"/>
        <line id="Line_339" data-name="Line 339" class="cls-4" y1="1080.36" x2="1080.36" transform="translate(1867.43 0.71)"/>
        <line id="Line_340" data-name="Line 340" class="cls-4" y1="1080.36" x2="1080.37" transform="translate(1877.25 0.71)"/>
        <line id="Line_341" data-name="Line 341" class="cls-4" y1="1080.36" x2="1080.36" transform="translate(1887.08 0.71)"/>
        <line id="Line_342" data-name="Line 342" class="cls-4" y1="1080.36" x2="1080.37" transform="translate(1896.9 0.71)"/>
        <line id="Line_343" data-name="Line 343" class="cls-4" y1="1080.36" x2="1080.36" transform="translate(1906.73 0.71)"/>
        <line id="Line_344" data-name="Line 344" class="cls-4" y1="1080.36" x2="1080.37" transform="translate(1916.55 0.71)"/>
        <line id="Line_345" data-name="Line 345" class="cls-4" y1="1080.36" x2="1080.36" transform="translate(1926.38 0.71)"/>
        <line id="Line_346" data-name="Line 346" class="cls-4" y1="1080.36" x2="1080.37" transform="translate(1936.2 0.71)"/>
        <line id="Line_347" data-name="Line 347" class="cls-4" y1="1080.36" x2="1080.36" transform="translate(1946.03 0.71)"/>
        <line id="Line_348" data-name="Line 348" class="cls-4" y1="1080.36" x2="1080.37" transform="translate(1955.85 0.71)"/>
        <line id="Line_349" data-name="Line 349" class="cls-4" y1="1080.36" x2="1080.36" transform="translate(1965.68 0.71)"/>
        <line id="Line_350" data-name="Line 350" class="cls-4" y1="1080.36" x2="1080.37" transform="translate(1975.5 0.71)"/>
        <line id="Line_351" data-name="Line 351" class="cls-4" y1="1080.36" x2="1080.37" transform="translate(1985.32 0.71)"/>
        <line id="Line_352" data-name="Line 352" class="cls-4" y1="1080.36" x2="1080.37" transform="translate(1995.15 0.71)"/>
        <line id="Line_353" data-name="Line 353" class="cls-4" y1="1080.36" x2="1080.37" transform="translate(2004.97 0.71)"/>
        <line id="Line_354" data-name="Line 354" class="cls-4" y1="1080.36" x2="1080.37" transform="translate(2014.8 0.71)"/>
        <line id="Line_355" data-name="Line 355" class="cls-4" y1="1080.36" x2="1080.37" transform="translate(2024.62 0.71)"/>
        <line id="Line_356" data-name="Line 356" class="cls-4" y1="1080.36" x2="1080.37" transform="translate(2034.45 0.71)"/>
        <line id="Line_357" data-name="Line 357" class="cls-4" y1="1080.36" x2="1080.37" transform="translate(2044.27 0.71)"/>
        <line id="Line_358" data-name="Line 358" class="cls-4" y1="1080.36" x2="1080.37" transform="translate(2054.1 0.71)"/>
        <line id="Line_359" data-name="Line 359" class="cls-4" y1="1080.36" x2="1080.37" transform="translate(2063.92 0.71)"/>
        <line id="Line_360" data-name="Line 360" class="cls-4" y1="1080.36" x2="1080.37" transform="translate(2073.75 0.71)"/>
        <line id="Line_361" data-name="Line 361" class="cls-4" y1="1080.36" x2="1080.37" transform="translate(2083.57 0.71)"/>
        <line id="Line_362" data-name="Line 362" class="cls-4" y1="1080.36" x2="1080.36" transform="translate(2093.4 0.71)"/>
        <line id="Line_363" data-name="Line 363" class="cls-4" y1="1080.36" x2="1080.37" transform="translate(2103.22 0.71)"/>
        <line id="Line_364" data-name="Line 364" class="cls-4" y1="1080.36" x2="1080.36" transform="translate(2113.05 0.71)"/>
        <line id="Line_365" data-name="Line 365" class="cls-4" y1="1080.36" x2="1080.37" transform="translate(2122.87 0.71)"/>
        <line id="Line_366" data-name="Line 366" class="cls-4" y1="1080.36" x2="1080.36" transform="translate(2132.7 0.71)"/>
        <line id="Line_367" data-name="Line 367" class="cls-4" y1="1080.36" x2="1080.37" transform="translate(2142.52 0.71)"/>
        <line id="Line_368" data-name="Line 368" class="cls-4" y1="1080.36" x2="1080.36" transform="translate(2152.35 0.71)"/>
        <line id="Line_369" data-name="Line 369" class="cls-4" y1="1080.36" x2="1080.37" transform="translate(2162.17 0.71)"/>
        <line id="Line_370" data-name="Line 370" class="cls-4" y1="1080.36" x2="1080.36" transform="translate(2172 0.71)"/>
        <line id="Line_371" data-name="Line 371" class="cls-4" y1="1080.36" x2="1080.37" transform="translate(2181.82 0.71)"/>
        <line id="Line_372" data-name="Line 372" class="cls-4" y1="1080.36" x2="1080.36" transform="translate(2191.65 0.71)"/>
        <line id="Line_373" data-name="Line 373" class="cls-4" y1="1080.36" x2="1080.37" transform="translate(2201.47 0.71)"/>
        <line id="Line_374" data-name="Line 374" class="cls-4" y1="1080.36" x2="1080.36" transform="translate(2211.3 0.71)"/>
        <line id="Line_375" data-name="Line 375" class="cls-4" y1="1080.36" x2="1080.37" transform="translate(2221.12 0.71)"/>
        <line id="Line_376" data-name="Line 376" class="cls-4" y1="1080.36" x2="1080.36" transform="translate(2230.95 0.71)"/>
        <line id="Line_377" data-name="Line 377" class="cls-4" y1="1080.36" x2="1080.37" transform="translate(2240.77 0.71)"/>
        <line id="Line_378" data-name="Line 378" class="cls-4" y1="1080.36" x2="1080.36" transform="translate(2250.6 0.71)"/>
        <line id="Line_379" data-name="Line 379" class="cls-4" y1="1080.36" x2="1080.37" transform="translate(2260.42 0.71)"/>
        <line id="Line_380" data-name="Line 380" class="cls-4" y1="1080.36" x2="1080.36" transform="translate(2270.25 0.71)"/>
        <line id="Line_381" data-name="Line 381" class="cls-4" y1="1080.36" x2="1080.37" transform="translate(2280.07 0.71)"/>
        <line id="Line_382" data-name="Line 382" class="cls-4" y1="1080.36" x2="1080.36" transform="translate(2289.9 0.71)"/>
        <line id="Line_383" data-name="Line 383" class="cls-4" y1="1080.36" x2="1080.37" transform="translate(2299.72 0.71)"/>
        <line id="Line_384" data-name="Line 384" class="cls-4" y1="1080.36" x2="1080.37" transform="translate(2309.54 0.71)"/>
        <line id="Line_385" data-name="Line 385" class="cls-4" y1="1080.36" x2="1080.37" transform="translate(2319.37 0.71)"/>
        <line id="Line_386" data-name="Line 386" class="cls-4" y1="1080.36" x2="1080.37" transform="translate(2329.19 0.71)"/>
        <line id="Line_387" data-name="Line 387" class="cls-4" y1="1080.36" x2="1080.37" transform="translate(2339.02 0.71)"/>
        <line id="Line_388" data-name="Line 388" class="cls-4" y1="1080.36" x2="1080.37" transform="translate(2348.84 0.71)"/>
        <line id="Line_389" data-name="Line 389" class="cls-4" y1="1080.36" x2="1080.37" transform="translate(2358.67 0.71)"/>
        <line id="Line_390" data-name="Line 390" class="cls-4" y1="1080.36" x2="1080.37" transform="translate(2368.49 0.71)"/>
        <line id="Line_391" data-name="Line 391" class="cls-4" y1="1080.36" x2="1080.37" transform="translate(2378.32 0.71)"/>
        <line id="Line_392" data-name="Line 392" class="cls-4" y1="1080.36" x2="1080.37" transform="translate(2388.14 0.71)"/>
        <line id="Line_393" data-name="Line 393" class="cls-4" y1="1080.36" x2="1080.36" transform="translate(2397.97 0.71)"/>
        <line id="Line_394" data-name="Line 394" class="cls-4" y1="1080.36" x2="1080.37" transform="translate(2407.79 0.71)"/>
        <line id="Line_395" data-name="Line 395" class="cls-4" y1="1080.36" x2="1080.36" transform="translate(2417.62 0.71)"/>
        <line id="Line_396" data-name="Line 396" class="cls-4" y1="1080.36" x2="1080.37" transform="translate(2427.44 0.71)"/>
        <line id="Line_397" data-name="Line 397" class="cls-4" y1="1080.36" x2="1080.36" transform="translate(2437.27 0.71)"/>
        <line id="Line_398" data-name="Line 398" class="cls-4" y1="1080.36" x2="1080.37" transform="translate(2447.09 0.71)"/>
        <line id="Line_399" data-name="Line 399" class="cls-4" y1="1080.36" x2="1080.36" transform="translate(2456.92 0.71)"/>
        <line id="Line_400" data-name="Line 400" class="cls-4" y1="1080.36" x2="1080.37" transform="translate(2466.74 0.71)"/>
        <line id="Line_401" data-name="Line 401" class="cls-4" y1="1080.36" x2="1080.36" transform="translate(2476.57 0.71)"/>
        <line id="Line_402" data-name="Line 402" class="cls-4" y1="1080.36" x2="1080.37" transform="translate(2486.39 0.71)"/>
        <line id="Line_403" data-name="Line 403" class="cls-4" y1="1080.36" x2="1080.36" transform="translate(2496.22 0.71)"/>
        <line id="Line_404" data-name="Line 404" class="cls-4" y1="1080.36" x2="1080.37" transform="translate(2506.04 0.71)"/>
        <line id="Line_405" data-name="Line 405" class="cls-4" y1="1080.36" x2="1080.36" transform="translate(2515.87 0.71)"/>
        <line id="Line_406" data-name="Line 406" class="cls-4" y1="1080.36" x2="1080.37" transform="translate(2525.69 0.71)"/>
        <line id="Line_407" data-name="Line 407" class="cls-4" y1="1080.36" x2="1080.36" transform="translate(2535.52 0.71)"/>
        <line id="Line_408" data-name="Line 408" class="cls-4" y1="1080.36" x2="1080.37" transform="translate(2545.34 0.71)"/>
        <line id="Line_409" data-name="Line 409" class="cls-4" y1="1080.36" x2="1080.36" transform="translate(2555.17 0.71)"/>
        <line id="Line_410" data-name="Line 410" class="cls-4" y1="1080.36" x2="1080.37" transform="translate(2564.99 0.71)"/>
        <line id="Line_411" data-name="Line 411" class="cls-4" y1="1080.36" x2="1080.36" transform="translate(2574.82 0.71)"/>
        <line id="Line_412" data-name="Line 412" class="cls-4" y1="1080.36" x2="1080.37" transform="translate(2584.64 0.71)"/>
        <line id="Line_413" data-name="Line 413" class="cls-4" y1="1080.36" x2="1080.36" transform="translate(2594.47 0.71)"/>
        <line id="Line_414" data-name="Line 414" class="cls-4" y1="1080.36" x2="1080.37" transform="translate(2604.29 0.71)"/>
        <line id="Line_415" data-name="Line 415" class="cls-4" y1="1080.36" x2="1080.37" transform="translate(2614.11 0.71)"/>
        <line id="Line_416" data-name="Line 416" class="cls-4" y1="1080.36" x2="1080.37" transform="translate(2623.94 0.71)"/>
        <line id="Line_417" data-name="Line 417" class="cls-4" y1="1080.36" x2="1080.37" transform="translate(2633.76 0.71)"/>
        <line id="Line_418" data-name="Line 418" class="cls-4" y1="1080.36" x2="1080.37" transform="translate(2643.59 0.71)"/>
        <line id="Line_419" data-name="Line 419" class="cls-4" y1="1080.36" x2="1080.37" transform="translate(2653.41 0.71)"/>
        <line id="Line_420" data-name="Line 420" class="cls-4" y1="1080.36" x2="1080.37" transform="translate(2663.24 0.71)"/>
        <line id="Line_421" data-name="Line 421" class="cls-4" y1="1080.36" x2="1080.37" transform="translate(2673.06 0.71)"/>
        <line id="Line_422" data-name="Line 422" class="cls-4" y1="1080.36" x2="1080.37" transform="translate(2682.89 0.71)"/>
        <line id="Line_423" data-name="Line 423" class="cls-4" y1="1080.36" x2="1080.37" transform="translate(2692.71 0.71)"/>
        <line id="Line_424" data-name="Line 424" class="cls-4" y1="1080.36" x2="1080.37" transform="translate(2702.54 0.71)"/>
        <line id="Line_425" data-name="Line 425" class="cls-4" y1="1080.36" x2="1080.37" transform="translate(2712.36 0.71)"/>
        <line id="Line_426" data-name="Line 426" class="cls-4" y1="1080.36" x2="1080.36" transform="translate(2722.19 0.71)"/>
        <line id="Line_427" data-name="Line 427" class="cls-4" y1="1080.36" x2="1080.37" transform="translate(2732.01 0.71)"/>
        <line id="Line_428" data-name="Line 428" class="cls-4" y1="1080.36" x2="1080.36" transform="translate(2741.84 0.71)"/>
        <line id="Line_429" data-name="Line 429" class="cls-4" y1="1080.36" x2="1080.37" transform="translate(2751.66 0.71)"/>
        <line id="Line_430" data-name="Line 430" class="cls-4" y1="1080.36" x2="1080.36" transform="translate(2761.49 0.71)"/>
        <line id="Line_431" data-name="Line 431" class="cls-4" y1="1080.36" x2="1080.37" transform="translate(2771.31 0.71)"/>
        <line id="Line_432" data-name="Line 432" class="cls-4" y1="1080.36" x2="1080.36" transform="translate(2781.14 0.71)"/>
        <line id="Line_433" data-name="Line 433" class="cls-4" y1="1080.36" x2="1080.37" transform="translate(2790.96 0.71)"/>
        <line id="Line_434" data-name="Line 434" class="cls-4" y1="1080.36" x2="1080.36" transform="translate(2800.79 0.71)"/>
        <line id="Line_435" data-name="Line 435" class="cls-4" y1="1080.36" x2="1080.37" transform="translate(2810.61 0.71)"/>
        <line id="Line_436" data-name="Line 436" class="cls-4" y1="1080.36" x2="1080.36" transform="translate(2820.44 0.71)"/>
        <line id="Line_437" data-name="Line 437" class="cls-4" y1="1080.36" x2="1080.37" transform="translate(2830.26 0.71)"/>
        <line id="Line_438" data-name="Line 438" class="cls-4" y1="1080.36" x2="1080.36" transform="translate(2840.09 0.71)"/>
        <line id="Line_439" data-name="Line 439" class="cls-4" y1="1080.36" x2="1080.37" transform="translate(2849.91 0.71)"/>
        <line id="Line_440" data-name="Line 440" class="cls-4" y1="1080.36" x2="1080.36" transform="translate(2859.74 0.71)"/>
        <line id="Line_441" data-name="Line 441" class="cls-4" y1="1080.36" x2="1080.37" transform="translate(2869.56 0.71)"/>
        <line id="Line_442" data-name="Line 442" class="cls-4" y1="1080.36" x2="1080.36" transform="translate(2879.39 0.71)"/>
        <line id="Line_443" data-name="Line 443" class="cls-4" y1="1080.36" x2="1080.37" transform="translate(2889.21 0.71)"/>
        <line id="Line_444" data-name="Line 444" class="cls-4" y1="1080.36" x2="1080.36" transform="translate(2899.04 0.71)"/>
        <line id="Line_445" data-name="Line 445" class="cls-4" y1="1080.36" x2="1080.37" transform="translate(2908.86 0.71)"/>
        <line id="Line_446" data-name="Line 446" class="cls-4" y1="1080.36" x2="1080.37" transform="translate(2918.68 0.71)"/>
        <line id="Line_447" data-name="Line 447" class="cls-4" y1="1080.36" x2="1080.37" transform="translate(2928.51 0.71)"/>
        <line id="Line_448" data-name="Line 448" class="cls-4" y1="1080.36" x2="1080.37" transform="translate(2938.33 0.71)"/>
        <line id="Line_449" data-name="Line 449" class="cls-4" y1="1080.36" x2="1080.37" transform="translate(2948.16 0.71)"/>
        <line id="Line_450" data-name="Line 450" class="cls-4" y1="1080.36" x2="1080.37" transform="translate(2957.98 0.71)"/>
        <line id="Line_451" data-name="Line 451" class="cls-4" y1="1080.36" x2="1080.37" transform="translate(2967.81 0.71)"/>
        <line id="Line_452" data-name="Line 452" class="cls-4" y1="1080.36" x2="1080.37" transform="translate(2977.63 0.71)"/>
        <line id="Line_453" data-name="Line 453" class="cls-4" y1="1080.36" x2="1080.37" transform="translate(2987.46 0.71)"/>
        <line id="Line_454" data-name="Line 454" class="cls-4" y1="1080.36" x2="1080.37" transform="translate(2997.28 0.71)"/>
      </g>
    </g>
  </g>
</svg>
