<svg xmlns="http://www.w3.org/2000/svg" viewBox="13371 -16187 200 162.534">
  <defs>
    <style>
      .cls-1 {
        fill: #3aaae1;
      }
    </style>
  </defs>
  <path id="Twitter" class="cls-1" d="M250,87.974a82.023,82.023,0,0,1-23.566,6.461,41.152,41.152,0,0,0,18.041-22.7,82.14,82.14,0,0,1-26.057,9.957A41.071,41.071,0,0,0,148.5,119.116,116.49,116.49,0,0,1,63.923,76.244a41.075,41.075,0,0,0,12.7,54.781,40.869,40.869,0,0,1-18.585-5.132c0,.171,0,.343,0,.516a41.058,41.058,0,0,0,32.915,40.234,41.128,41.128,0,0,1-18.53.7,41.073,41.073,0,0,0,38.331,28.495,82.323,82.323,0,0,1-50.96,17.565A83.232,83.232,0,0,1,50,212.832a116.135,116.135,0,0,0,62.9,18.437c75.473,0,116.746-62.524,116.746-116.747q0-2.668-.119-5.309A83.362,83.362,0,0,0,250,87.974Z" transform="translate(13321 -16255.734)"/>
</svg>
