<svg xmlns="http://www.w3.org/2000/svg" viewBox="9980.229 -102 47.771 47.771">
  <defs>
    <style>
      .cls-1 {
        fill: #a7a7a7;
      }

      .cls-2 {
        fill: #fff;
      }
    </style>
  </defs>
  <g id="views_icn" transform="translate(9980.229 -102)">
    <ellipse id="Ellipse_10" data-name="Ellipse 10" class="cls-1" cx="23.886" cy="23.886" rx="23.886" ry="23.886" transform="translate(0)"/>
    <g id="_44326" data-name="44326" transform="translate(7.006 13.694)">
      <path id="Path_341" data-name="Path 341" class="cls-2" d="M16.881,115.7a18.038,18.038,0,0,1,10.271,3.617,15.425,15.425,0,0,1,4.5,4.568,15.432,15.432,0,0,1-4.5,4.568,18.039,18.039,0,0,1-10.271,3.617A18.039,18.039,0,0,1,6.61,128.456a15.432,15.432,0,0,1-4.5-4.568,15.433,15.433,0,0,1,4.5-4.568A18.042,18.042,0,0,1,16.881,115.7m0-2.046C7.558,113.657,0,121.842,0,123.888s7.558,10.231,16.881,10.231,16.881-8.185,16.881-10.231S26.2,113.657,16.881,113.657Zm0,4.092a6.139,6.139,0,1,0,6.139,6.139A6.139,6.139,0,0,0,16.881,117.749Zm-1.653,6.139a2.6,2.6,0,1,1,2.6-2.6A2.6,2.6,0,0,1,15.228,123.888Z" transform="translate(0 -113.657)"/>
    </g>
  </g>
</svg>
