<?xml version="1.0" encoding="utf-8"?>
<!-- Generator: Adobe Illustrator 22.0.1, SVG Export Plug-In . SVG Version: 6.00 Build 0)  -->
<svg version="1.1" id="Capa_1" xmlns="http://www.w3.org/2000/svg" xmlns:xlink="http://www.w3.org/1999/xlink" x="0px" y="0px"
	 viewBox="0 0 419.3 528.3" style="enable-background:new 0 0 419.3 528.3;" xml:space="preserve">
<style type="text/css">
	.st0{fill:#D8DADE;}
	.st1{fill:#9C9BA0;}
	.st2{fill:#737277;}
	.st3{opacity:0.5;fill:#9C9BA0;enable-background:new    ;}
	.st4{opacity:0.2;fill:#9C9BA0;enable-background:new    ;}
	.st5{fill:#89878C;}
	.st6{fill:#B0AFB5;}
	.st7{fill:#C3C5CA;}
	.st8{opacity:0.15;fill:#1F140F;enable-background:new    ;}
	.st9{fill:#811324;}
	.st10{enable-background:new    ;}
	.st11{fill:#1F140F;}
</style>
<title>LogoNezco</title>
<polygon class="st0" points="0,68.3 111.6,0 149.2,17.5 110.3,100.9 149.2,167.4 129.1,251.4 7.5,140.4 "/>
<polygon class="st0" points="267,17.5 307.8,0 417.5,67.7 407.5,143.5 285.8,251.4 267,166.7 307.1,100.9 "/>
<polygon class="st0" points="154.2,19.4 263.3,19.4 298.4,100.3 239.5,197.4 233.8,316.6 262,390.5 279,378.6 290.9,394.3 
	267,414.3 231.9,406.2 195.6,331.6 176.8,201.2 117.2,100.3 "/>
<polygon class="st0" points="154.2,174.3 172.4,203.1 157.3,312.8 163.3,336.6 149.2,324.7 134.1,245.7 "/>
<polygon class="st0" points="244.5,203.7 261.4,174.3 279.6,251.4 271.4,322.2 255.8,331 255.1,251.4 "/>
<polygon class="st1" points="111.6,0 5.2,118.2 0,68.3 "/>
<polygon class="st2" points="11.6,111.1 17.8,135.8 129.1,251.4 7.5,140.4 5.2,118.2 "/>
<polygon class="st3" points="110.3,100.9 102.3,223.5 129.1,251.4 149.2,167.4 "/>
<polygon class="st1" points="305.3,0 411.6,118.2 416.9,68.3 "/>
<polygon class="st2" points="405.3,111.1 399,135.8 285.8,251.4 409.3,140.4 411.6,118.2 "/>
<polygon class="st3" points="306.5,100.9 314.5,223.5 285.8,251.4 267.7,167.4 "/>
<polygon class="st1" points="117.2,100.3 172.4,35.5 263.3,19.4 154.2,19.4 "/>
<polygon class="st1" points="207.8,29.2 207.8,59.9 298.4,100.3 263.3,19.4 "/>
<polygon class="st1" points="207.8,59.9 207.8,194.9 239.5,197.4 298.4,100.3 "/>
<polygon class="st4" points="207.5,59.7 207.5,194.7 239.1,197.3 298.1,100.1 "/>
<polygon class="st1" points="207.8,194.9 215.9,323.9 233.8,316.6 239.5,197.4 "/>
<polygon class="st1" points="215.9,323.9 262,390.5 233.8,316.6 "/>
<polygon class="st5" points="262,390.5 267,406.6 282,382.5 279,378.6 "/>
<polygon class="st6" points="195.6,331.6 267,414.3 231.9,406.2 "/>
<polygon class="st7" points="215.9,355.1 176.8,201.2 195.6,331.6 "/>
<polygon class="st3" points="161.9,186.6 141.5,244.5 157.3,312.8 158.2,251.4 167.2,194.9 "/>
<polygon class="st1" points="167.2,194.9 172.4,203.1 158.2,307.1 158.2,251.4 "/>
<polygon class="st1" points="244.5,203.7 253.1,188.7 263.3,246.1 258.8,329.3 255.8,331 253.1,249.7 "/>
<polygon class="st3" points="277.5,242.6 258.8,329.3 271.4,322.2 279.6,251.4 "/>
<polygon class="st1" points="154.2,19.4 172.4,35.5 117.2,100.3 "/>
<path class="st8" d="M7.5,140.4c0,0,92.2,67.6,141.7,27l-21.1,82.7L7.5,140.4z"/>
<path class="st8" d="M408.2,141.7c0,0-90.7,65.7-141.2,25.1l18.8,84.6L408.2,141.7z"/>
<polygon class="st9" points="196.7,207.5 196.7,133.4 133.9,98.7 "/>
<polygon class="st9" points="220.7,133.4 220.7,207.5 283.4,98.7 "/>
<polygon class="st9" points="140.9,72.7 207.6,109.2 273.9,72.7 "/>
<g class="st10">
	<path class="st1" d="M10.8,422.1h24.3l27.6,45.1h0.2l1.8-45.1h20.4l-2.9,72.1H58.9l-28.6-45.5h-0.2l-1.8,45.5H7.9L10.8,422.1z"/>
	<path class="st1" d="M98.8,422.1h63.5l-0.6,15.5h-42.4l-0.5,13h39.7l-0.6,14.9h-39.7l-0.5,13h42.4l-0.6,15.5H95.9L98.8,422.1z"/>
	<path class="st1" d="M165,480.4l41.7-42.1h-37.2l0.6-16.1h65.6l-0.6,14.1L193.7,478h39.1l-0.6,16.2h-67.7L165,480.4z"/>
	<path class="st1" d="M320.3,466.4c-0.8,3.9-2,7.7-3.6,11.3c-1.6,3.6-3.9,6.8-7,9.6c-3.1,2.8-7.1,5-12,6.7c-5,1.6-11.2,2.5-18.7,2.5
		c-13.4,0-23.3-3.3-29.6-9.8c-6.3-6.5-9.2-16-8.7-28.5c0.2-6.1,1.2-11.4,3-16.2c1.8-4.7,4.3-8.7,7.7-12c3.4-3.3,7.6-5.8,12.7-7.5
		c5.1-1.7,11.1-2.6,18-2.6c4.9,0,9.4,0.4,13.7,1.2c4.3,0.8,8.1,2.3,11.5,4.4c3.4,2.2,6.3,5.2,8.6,9.1c2.3,3.9,4,9,4.9,15.2h-23.5
		c-0.2-1.3-0.6-2.7-1.2-4.3c-0.6-1.6-1.4-3.1-2.6-4.5c-1.2-1.4-2.7-2.6-4.6-3.5c-1.9-0.9-4.4-1.4-7.4-1.4c-3.3,0-6.1,0.6-8.4,1.8
		c-2.3,1.2-4.2,2.8-5.6,4.8c-1.4,2-2.5,4.4-3.2,7.1c-0.7,2.7-1.1,5.5-1.2,8.5c-0.1,3,0,5.8,0.5,8.5c0.5,2.7,1.3,5,2.6,7.1
		c1.3,2,3,3.6,5.2,4.8c2.2,1.2,5,1.8,8.5,1.8c4.8,0,8.6-1.2,11.5-3.7c2.9-2.5,4.8-5.9,5.6-10.1H320.3z"/>
	<path class="st1" d="M327,458.2c0.3-7.5,1.6-13.7,4-18.6c2.4-4.9,5.5-8.8,9.4-11.8c3.9-2.9,8.4-5,13.4-6.2c5-1.2,10.3-1.8,16-1.8
		c5.6,0,10.8,0.6,15.8,1.8c5,1.2,9.3,3.2,12.9,6.2c3.7,2.9,6.5,6.8,8.5,11.8c2,4.9,2.8,11.1,2.5,18.6s-1.6,13.7-4,18.6
		c-2.4,4.9-5.5,8.8-9.4,11.8c-3.9,2.9-8.4,5-13.4,6.2c-5.1,1.2-10.4,1.8-15.9,1.8c-5.6,0-10.9-0.6-15.8-1.8
		c-4.9-1.2-9.2-3.2-12.9-6.2c-3.7-2.9-6.5-6.8-8.5-11.8C327.5,471.8,326.7,465.6,327,458.2z M349.4,458.2c-0.2,3.8,0.2,7,1,9.8
		c0.8,2.8,2,5.1,3.6,6.9c1.6,1.8,3.5,3.2,5.8,4c2.3,0.9,4.8,1.3,7.7,1.3c2.8,0,5.4-0.4,7.8-1.3c2.4-0.9,4.4-2.2,6.1-4
		c1.7-1.8,3.1-4.1,4.1-6.9c1-2.8,1.6-6.1,1.8-9.8c0.3-7.5-1.2-13.1-4.5-16.7c-3.3-3.6-7.8-5.4-13.5-5.4c-2.8,0-5.4,0.5-7.8,1.4
		s-4.4,2.3-6.1,4.1c-1.7,1.8-3.1,4.1-4.1,6.9C350.1,451.2,349.5,454.5,349.4,458.2z"/>
</g>
<g class="st10">
	<path class="st11" d="M4.9,514.9h3.7l-1.8,11.8h-5L4.9,514.9z M5.7,508.5h4.9l-1,5.1H4.6L5.7,508.5z"/>
	<path class="st11" d="M23.9,512h8.3l-2.1,10.3h-2.4l-0.2-1.9c-0.2,0.2-0.5,0.5-0.9,0.8c-0.4,0.3-0.9,0.5-1.5,0.8
		c-0.6,0.3-1.3,0.5-2.1,0.6c-0.8,0.2-1.7,0.3-2.7,0.3c-1.7,0-3.1-0.2-4.2-0.6c-1.1-0.4-2-1-2.6-1.8c-0.6-0.8-1-1.8-1.1-3
		c-0.1-1.2,0-2.6,0.3-4.2c0.3-1.3,0.7-2.6,1.3-3.8c0.6-1.2,1.4-2.2,2.4-3.1c1-0.9,2.1-1.6,3.5-2.1c1.3-0.5,2.8-0.8,4.5-0.8
		c1.1,0,2.1,0.1,3.2,0.3c1.1,0.2,2,0.5,2.8,1c0.8,0.5,1.4,1.2,1.9,2c0.5,0.9,0.6,1.9,0.5,3.2h-5.8c0-0.4-0.1-0.7-0.2-1
		s-0.3-0.6-0.5-0.8c-0.2-0.2-0.6-0.4-1-0.6c-0.4-0.1-0.9-0.2-1.5-0.2c-0.8,0-1.5,0.1-2.1,0.4c-0.6,0.3-1.2,0.7-1.7,1.2
		c-0.5,0.5-0.9,1.1-1.2,1.8c-0.3,0.7-0.6,1.5-0.7,2.3s-0.2,1.5-0.2,2.2c0,0.7,0.2,1.3,0.5,1.8c0.3,0.5,0.7,0.9,1.2,1.2
		c0.5,0.3,1.2,0.4,2,0.4c1.3,0,2.3-0.3,3.1-0.8c0.8-0.5,1.4-1.3,1.9-2.4h-3.2L23.9,512z"/>
	<path class="st11" d="M49.6,518.2c-0.3,0.6-0.6,1.1-1.1,1.7c-0.5,0.6-1.1,1.1-1.8,1.5c-0.7,0.4-1.6,0.8-2.5,1.1
		c-1,0.3-2.1,0.4-3.3,0.4c-2.6,0-4.6-0.6-5.7-1.8c-1.2-1.2-1.5-3.1-1-5.7c0.3-1.2,0.7-2.3,1.2-3.2c0.6-0.9,1.3-1.7,2.1-2.3
		c0.8-0.6,1.8-1.1,2.9-1.4c1.1-0.3,2.2-0.5,3.4-0.5c1.3,0,2.4,0.2,3.3,0.5c0.9,0.3,1.7,0.8,2.3,1.5c0.6,0.7,0.9,1.5,1.1,2.6
		c0.2,1,0.1,2.3-0.2,3.7l-0.1,0.4H38.5c0,0.4,0,0.9,0.1,1.2c0.1,0.4,0.3,0.7,0.5,1c0.2,0.3,0.6,0.5,1,0.6c0.4,0.2,0.9,0.2,1.5,0.2
		c0.7,0,1.3-0.2,1.8-0.5c0.5-0.3,0.9-0.7,1.3-1.1H49.6z M45.9,513.9c0-0.4,0-0.7-0.1-1.1c-0.1-0.3-0.2-0.7-0.5-0.9
		c-0.2-0.3-0.5-0.5-0.9-0.6c-0.4-0.2-0.8-0.2-1.4-0.2c-1.1,0-1.9,0.3-2.6,0.8c-0.6,0.6-1.1,1.2-1.4,2H45.9z"/>
	<path class="st11" d="M54.1,508.5h4.5l-0.4,2h0c0.6-0.7,1.4-1.2,2.3-1.7c0.9-0.4,1.9-0.7,3.1-0.7c0.7,0,1.4,0.1,1.9,0.3
		c0.6,0.2,1,0.5,1.4,0.9c0.4,0.4,0.6,1,0.7,1.6c0.1,0.6,0.1,1.4-0.1,2.2l-1.9,9.1h-4.6l1.5-7.5c0.4-1.8-0.2-2.6-1.8-2.6
		c-0.8,0-1.6,0.3-2.2,0.8c-0.7,0.5-1.1,1.4-1.3,2.5l-1.4,6.8h-4.6L54.1,508.5z"/>
	<path class="st11" d="M84.9,518.2c-0.3,0.6-0.6,1.1-1.1,1.7c-0.5,0.6-1.1,1.1-1.8,1.5c-0.7,0.4-1.6,0.8-2.5,1.1
		c-1,0.3-2.1,0.4-3.3,0.4c-2.6,0-4.6-0.6-5.7-1.8c-1.2-1.2-1.5-3.1-1-5.7c0.3-1.2,0.7-2.3,1.2-3.2c0.6-0.9,1.3-1.7,2.1-2.3
		c0.8-0.6,1.8-1.1,2.9-1.4c1.1-0.3,2.2-0.5,3.4-0.5c1.3,0,2.4,0.2,3.3,0.5c0.9,0.3,1.7,0.8,2.3,1.5c0.6,0.7,0.9,1.5,1.1,2.6
		c0.2,1,0.1,2.3-0.2,3.7l-0.1,0.4H73.9c0,0.4,0,0.9,0.1,1.2c0.1,0.4,0.3,0.7,0.5,1c0.2,0.3,0.6,0.5,1,0.6c0.4,0.2,0.9,0.2,1.5,0.2
		c0.7,0,1.3-0.2,1.8-0.5c0.5-0.3,0.9-0.7,1.3-1.1H84.9z M81.3,513.9c0-0.4,0-0.7-0.1-1.1c-0.1-0.3-0.2-0.7-0.5-0.9
		c-0.2-0.3-0.5-0.5-0.9-0.6c-0.4-0.2-0.8-0.2-1.4-0.2c-1.1,0-1.9,0.3-2.6,0.8c-0.6,0.6-1.1,1.2-1.4,2H81.3z"/>
	<path class="st11" d="M89.5,508.5h4.5l-0.6,2.7h0c0.6-0.9,1.5-1.7,2.4-2.2c1-0.6,2-0.9,3-0.9c0.2,0,0.5,0,0.8,0
		c0.3,0,0.5,0.1,0.7,0.1l-1,5.1c-0.3-0.1-0.6-0.2-1.1-0.3c-0.5-0.1-0.9-0.1-1.4-0.1c-1.3,0-2.3,0.4-3.1,1.1c-0.8,0.7-1.3,1.7-1.5,3
		l-1.1,5.4h-4.6L89.5,508.5z"/>
	<path class="st11" d="M101.6,512.8c0.3-1,0.8-1.8,1.3-2.5c0.6-0.6,1.2-1.1,2-1.4c0.7-0.3,1.5-0.5,2.4-0.7c0.9-0.1,1.7-0.2,2.7-0.2
		c1.1,0,2,0.1,2.9,0.2c0.9,0.1,1.6,0.4,2.2,0.7c0.6,0.3,1,0.8,1.3,1.4c0.3,0.6,0.3,1.4,0.1,2.4l-1.4,7c-0.1,0.5-0.2,1-0.2,1.4
		c0,0.2,0,0.4,0,0.5c0,0.2,0.1,0.4,0.1,0.6h-4.6c0-0.2-0.1-0.4,0-0.6c0-0.1,0-0.2,0-0.3c0-0.1,0-0.2,0-0.3c-0.8,0.7-1.7,1.2-2.7,1.5
		c-1,0.2-2,0.4-3.2,0.4c-3.8,0-5.4-1.4-4.9-4.3c0.2-0.8,0.4-1.4,0.8-2c0.3-0.5,0.7-1,1.2-1.3c0.5-0.3,1.1-0.6,1.7-0.8
		c0.7-0.2,1.4-0.3,2.3-0.4l4.7-0.4c0.6,0,1-0.1,1.2-0.3c0.2-0.2,0.3-0.4,0.4-0.8c0.1-0.5-0.1-0.9-0.5-1.1c-0.4-0.2-1.1-0.4-2.1-0.4
		c-0.9,0-1.5,0.1-2,0.4c-0.5,0.3-0.8,0.7-1.1,1.3H101.6z M111.3,515.9c-0.2,0.1-0.4,0.1-0.7,0.2c-0.3,0.1-0.7,0.1-1.1,0.2l-3.2,0.4
		c-0.5,0.1-0.8,0.2-1.1,0.4c-0.3,0.2-0.4,0.5-0.5,1c-0.1,0.5,0,1,0.3,1.2c0.3,0.3,0.8,0.4,1.4,0.4c1.3,0,2.4-0.3,3.2-0.8
		c0.8-0.5,1.3-1.3,1.5-2.3L111.3,515.9z"/>
	<path class="st11" d="M120.4,508.5h4.5l-0.4,2h0c0.6-0.7,1.4-1.2,2.3-1.7c0.9-0.4,1.9-0.7,3.1-0.7c0.7,0,1.4,0.1,1.9,0.3
		c0.6,0.2,1,0.5,1.4,0.9c0.4,0.4,0.6,1,0.7,1.6c0.1,0.6,0.1,1.4-0.1,2.2l-1.9,9.1h-4.6l1.5-7.5c0.4-1.8-0.2-2.6-1.8-2.6
		c-0.8,0-1.6,0.3-2.2,0.8c-0.7,0.5-1.1,1.4-1.3,2.5l-1.4,6.8h-4.6L120.4,508.5z"/>
	<path class="st11" d="M145.9,520.7L145.9,520.7c-0.7,0.7-1.4,1.3-2.3,1.6c-0.8,0.4-1.7,0.6-2.7,0.6c-1,0-2-0.2-2.7-0.5
		c-0.8-0.3-1.4-0.8-1.9-1.5c-0.5-0.6-0.8-1.4-0.9-2.3c-0.1-0.9-0.1-2,0.2-3.2c0.2-1,0.5-1.9,1-2.8c0.5-0.9,1.1-1.7,1.8-2.3
		c0.7-0.7,1.5-1.2,2.5-1.6c0.9-0.4,1.9-0.6,3-0.6c1,0,1.9,0.2,2.6,0.6s1.1,0.9,1.4,1.6h0l1.3-6.6h4.6l-3.8,18.6h-4.5L145.9,520.7z
		 M146.8,515.4c0.2-1.1,0.1-1.9-0.3-2.6s-1.2-1-2.3-1c-1.1,0-1.9,0.3-2.6,0.9c-0.7,0.6-1.1,1.5-1.4,2.6c-0.2,1.2-0.1,2.1,0.3,2.6
		c0.4,0.6,1.2,0.9,2.2,0.9c1.1,0,2-0.3,2.6-1C146.2,517.4,146.6,516.5,146.8,515.4z"/>
	<path class="st11" d="M153.7,515.4c0.5-2.5,1.6-4.3,3.3-5.6c1.7-1.2,3.8-1.9,6.5-1.9s4.6,0.6,5.7,1.9c1.1,1.3,1.5,3.1,0.9,5.6
		c-0.5,2.5-1.6,4.3-3.3,5.6c-1.7,1.2-3.8,1.9-6.5,1.9s-4.6-0.6-5.7-1.9C153.5,519.8,153.1,517.9,153.7,515.4z M162.7,511.5
		c-1,0-1.9,0.3-2.7,1c-0.7,0.6-1.2,1.6-1.5,2.9c-0.3,1.3-0.2,2.3,0.3,2.9c0.5,0.6,1.2,1,2.3,1s1.9-0.3,2.7-1
		c0.7-0.6,1.2-1.6,1.5-2.9c0.3-1.3,0.2-2.3-0.3-2.9C164.5,511.8,163.7,511.5,162.7,511.5z"/>
	<path class="st11" d="M200.3,515.3c-0.4,1-0.8,1.9-1.4,2.8c-0.5,0.9-1.2,1.7-2.1,2.4c-0.9,0.7-1.9,1.3-3.2,1.7
		c-1.3,0.4-2.8,0.6-4.7,0.6c-3.3,0-5.6-0.8-6.8-2.5c-1.3-1.6-1.6-4-0.9-7.2c0.3-1.5,0.8-2.9,1.4-4.1c0.6-1.2,1.4-2.2,2.4-3
		c1-0.8,2.1-1.5,3.4-1.9c1.3-0.4,2.8-0.7,4.5-0.7c1.2,0,2.3,0.1,3.3,0.3s1.9,0.6,2.6,1.1c0.7,0.6,1.3,1.3,1.7,2.3
		c0.4,1,0.6,2.3,0.5,3.9h-5.7c0-0.3-0.1-0.7-0.1-1.1c-0.1-0.4-0.2-0.8-0.4-1.1s-0.5-0.7-1-0.9s-1-0.4-1.7-0.4
		c-0.8,0-1.5,0.1-2.1,0.4c-0.6,0.3-1.1,0.7-1.6,1.2c-0.4,0.5-0.8,1.1-1.1,1.8c-0.3,0.7-0.5,1.4-0.6,2.1c-0.2,0.7-0.2,1.5-0.2,2.1
		s0.1,1.3,0.3,1.8c0.2,0.5,0.6,0.9,1.1,1.2c0.5,0.3,1.2,0.4,2,0.4c1.2,0,2.2-0.3,3-0.9c0.8-0.6,1.4-1.5,1.8-2.6H200.3z"/>
	<path class="st11" d="M203.2,512.8c0.3-1,0.8-1.8,1.3-2.5c0.6-0.6,1.2-1.1,2-1.4c0.7-0.3,1.5-0.5,2.4-0.7c0.9-0.1,1.7-0.2,2.7-0.2
		c1.1,0,2,0.1,2.9,0.2c0.9,0.1,1.6,0.4,2.2,0.7c0.6,0.3,1,0.8,1.3,1.4c0.3,0.6,0.3,1.4,0.1,2.4l-1.4,7c-0.1,0.5-0.2,1-0.2,1.4
		c0,0.2,0,0.4,0,0.5c0,0.2,0.1,0.4,0.1,0.6h-4.6c0-0.2-0.1-0.4,0-0.6c0-0.1,0-0.2,0-0.3c0-0.1,0-0.2,0-0.3c-0.8,0.7-1.7,1.2-2.7,1.5
		c-1,0.2-2,0.4-3.2,0.4c-3.8,0-5.4-1.4-4.9-4.3c0.2-0.8,0.4-1.4,0.8-2c0.3-0.5,0.7-1,1.2-1.3c0.5-0.3,1.1-0.6,1.7-0.8
		c0.7-0.2,1.4-0.3,2.3-0.4l4.7-0.4c0.6,0,1-0.1,1.2-0.3c0.2-0.2,0.3-0.4,0.4-0.8c0.1-0.5-0.1-0.9-0.5-1.1c-0.4-0.2-1.1-0.4-2.1-0.4
		c-0.9,0-1.5,0.1-2,0.4c-0.5,0.3-0.8,0.7-1.1,1.3H203.2z M212.9,515.9c-0.2,0.1-0.4,0.1-0.7,0.2c-0.3,0.1-0.7,0.1-1.1,0.2l-3.2,0.4
		c-0.5,0.1-0.8,0.2-1.1,0.4c-0.3,0.2-0.4,0.5-0.5,1c-0.1,0.5,0,1,0.3,1.2c0.3,0.3,0.8,0.4,1.4,0.4c1.3,0,2.4-0.3,3.2-0.8
		c0.8-0.5,1.3-1.3,1.5-2.3L212.9,515.9z"/>
	<path class="st11" d="M223,503.6h4.6l-3.9,18.7h-4.6L223,503.6z"/>
	<path class="st11" d="M229.6,508.5h4.6l-2.8,13.8h-4.6L229.6,508.5z M230.7,503.6h4.6l-0.7,3.3H230L230.7,503.6z"/>
	<path class="st11" d="M245.4,520.7L245.4,520.7c-0.7,0.7-1.4,1.3-2.3,1.6c-0.8,0.4-1.7,0.6-2.7,0.6c-1,0-2-0.2-2.7-0.5
		c-0.8-0.3-1.4-0.8-1.9-1.5c-0.5-0.6-0.8-1.4-0.9-2.3c-0.1-0.9-0.1-2,0.2-3.2c0.2-1,0.5-1.9,1-2.8c0.5-0.9,1.1-1.7,1.8-2.3
		s1.5-1.2,2.5-1.6c0.9-0.4,1.9-0.6,3-0.6c1,0,1.9,0.2,2.6,0.6c0.7,0.4,1.1,0.9,1.4,1.6h0l1.3-6.6h4.6l-3.8,18.6h-4.5L245.4,520.7z
		 M246.4,515.4c0.2-1.1,0.1-1.9-0.3-2.6c-0.4-0.6-1.2-1-2.3-1c-1.1,0-1.9,0.3-2.6,0.9c-0.7,0.6-1.1,1.5-1.4,2.6
		c-0.2,1.2-0.1,2.1,0.3,2.6c0.4,0.6,1.2,0.9,2.2,0.9c1.1,0,2-0.3,2.6-1C245.7,517.4,246.1,516.5,246.4,515.4z"/>
	<path class="st11" d="M254.5,512.8c0.3-1,0.8-1.8,1.3-2.5c0.6-0.6,1.2-1.1,2-1.4c0.7-0.3,1.5-0.5,2.4-0.7c0.9-0.1,1.7-0.2,2.7-0.2
		c1.1,0,2,0.1,2.9,0.2c0.9,0.1,1.6,0.4,2.2,0.7c0.6,0.3,1,0.8,1.3,1.4c0.3,0.6,0.3,1.4,0.1,2.4l-1.4,7c-0.1,0.5-0.2,1-0.2,1.4
		c0,0.2,0,0.4,0,0.5s0.1,0.4,0.1,0.6h-4.6c0-0.2-0.1-0.4,0-0.6c0-0.1,0-0.2,0-0.3c0-0.1,0-0.2,0-0.3c-0.8,0.7-1.7,1.2-2.7,1.5
		c-1,0.2-2,0.4-3.2,0.4c-3.8,0-5.4-1.4-4.9-4.3c0.2-0.8,0.4-1.4,0.8-2c0.3-0.5,0.7-1,1.2-1.3c0.5-0.3,1.1-0.6,1.7-0.8
		c0.7-0.2,1.4-0.3,2.3-0.4l4.7-0.4c0.6,0,1-0.1,1.2-0.3c0.2-0.2,0.3-0.4,0.4-0.8c0.1-0.5-0.1-0.9-0.5-1.1c-0.4-0.2-1.1-0.4-2.1-0.4
		c-0.9,0-1.5,0.1-2,0.4c-0.5,0.3-0.8,0.7-1.1,1.3H254.5z M264.2,515.9c-0.2,0.1-0.4,0.1-0.7,0.2c-0.3,0.1-0.7,0.1-1.1,0.2l-3.2,0.4
		c-0.5,0.1-0.8,0.2-1.1,0.4c-0.3,0.2-0.4,0.5-0.5,1c-0.1,0.5,0,1,0.3,1.2c0.3,0.3,0.8,0.4,1.4,0.4c1.3,0,2.4-0.3,3.2-0.8
		c0.8-0.5,1.3-1.3,1.5-2.3L264.2,515.9z"/>
	<path class="st11" d="M281.5,520.7L281.5,520.7c-0.7,0.7-1.4,1.3-2.3,1.6c-0.8,0.4-1.7,0.6-2.7,0.6c-1,0-2-0.2-2.7-0.5
		c-0.8-0.3-1.4-0.8-1.9-1.5c-0.5-0.6-0.8-1.4-0.9-2.3c-0.1-0.9-0.1-2,0.2-3.2c0.2-1,0.5-1.9,1-2.8c0.5-0.9,1.1-1.7,1.8-2.3
		c0.7-0.7,1.5-1.2,2.5-1.6c0.9-0.4,1.9-0.6,3-0.6c1,0,1.9,0.2,2.6,0.6c0.7,0.4,1.1,0.9,1.4,1.6h0l1.3-6.6h4.6l-3.8,18.6h-4.5
		L281.5,520.7z M282.5,515.4c0.2-1.1,0.1-1.9-0.3-2.6c-0.4-0.6-1.2-1-2.3-1c-1.1,0-1.9,0.3-2.6,0.9c-0.7,0.6-1.1,1.5-1.4,2.6
		c-0.2,1.2-0.1,2.1,0.3,2.6c0.4,0.6,1.2,0.9,2.2,0.9c1.1,0,2-0.3,2.6-1C281.8,517.4,282.3,516.5,282.5,515.4z"/>
	<path class="st11" d="M308.4,520.7L308.4,520.7c-0.7,0.7-1.4,1.3-2.3,1.6c-0.8,0.4-1.7,0.6-2.7,0.6c-1,0-2-0.2-2.7-0.5
		c-0.8-0.3-1.4-0.8-1.9-1.5c-0.5-0.6-0.8-1.4-0.9-2.3c-0.1-0.9-0.1-2,0.2-3.2c0.2-1,0.5-1.9,1-2.8c0.5-0.9,1.1-1.7,1.8-2.3
		s1.5-1.2,2.5-1.6c0.9-0.4,1.9-0.6,3-0.6c1,0,1.9,0.2,2.6,0.6c0.7,0.4,1.1,0.9,1.4,1.6h0l1.3-6.6h4.6l-3.8,18.6h-4.5L308.4,520.7z
		 M309.4,515.4c0.2-1.1,0.1-1.9-0.3-2.6c-0.4-0.6-1.2-1-2.3-1c-1.1,0-1.9,0.3-2.6,0.9c-0.7,0.6-1.1,1.5-1.4,2.6
		c-0.2,1.2-0.1,2.1,0.3,2.6c0.4,0.6,1.2,0.9,2.2,0.9c1.1,0,2-0.3,2.6-1C308.7,517.4,309.2,516.5,309.4,515.4z"/>
	<path class="st11" d="M331.8,518.2c-0.3,0.6-0.6,1.1-1.1,1.7c-0.5,0.6-1.1,1.1-1.8,1.5c-0.7,0.4-1.6,0.8-2.5,1.1
		c-1,0.3-2.1,0.4-3.3,0.4c-2.6,0-4.6-0.6-5.7-1.8c-1.2-1.2-1.5-3.1-1-5.7c0.3-1.2,0.7-2.3,1.2-3.2c0.6-0.9,1.3-1.7,2.1-2.3
		c0.8-0.6,1.8-1.1,2.9-1.4c1.1-0.3,2.2-0.5,3.4-0.5c1.3,0,2.4,0.2,3.3,0.5c0.9,0.3,1.7,0.8,2.3,1.5c0.6,0.7,0.9,1.5,1.1,2.6
		c0.2,1,0.1,2.3-0.2,3.7l-0.1,0.4h-11.5c0,0.4,0,0.9,0.1,1.2c0.1,0.4,0.3,0.7,0.5,1c0.2,0.3,0.6,0.5,1,0.6c0.4,0.2,0.9,0.2,1.5,0.2
		c0.7,0,1.3-0.2,1.8-0.5c0.5-0.3,0.9-0.7,1.3-1.1H331.8z M328.1,513.9c0-0.4,0-0.7-0.1-1.1c-0.1-0.3-0.2-0.7-0.5-0.9
		c-0.2-0.3-0.5-0.5-0.9-0.6c-0.4-0.2-0.8-0.2-1.4-0.2c-1.1,0-1.9,0.3-2.6,0.8c-0.6,0.6-1.1,1.2-1.4,2H328.1z"/>
</g>
<g class="st10">
	<path class="st11" d="M341.1,504.1h5.7l1.3,13h0l6.6-13h5.7l-10.7,18.2h-5.5L341.1,504.1z"/>
</g>
<g class="st10">
	<path class="st11" d="M360.8,508.5h4.6l-2.8,13.8H358L360.8,508.5z M361.8,503.6h4.6l-0.7,3.3h-4.6L361.8,503.6z"/>
	<path class="st11" d="M376.6,520.7L376.6,520.7c-0.7,0.7-1.4,1.3-2.3,1.6c-0.8,0.4-1.7,0.6-2.7,0.6c-1,0-2-0.2-2.7-0.5
		c-0.8-0.3-1.4-0.8-1.9-1.5c-0.5-0.6-0.8-1.4-0.9-2.3c-0.1-0.9-0.1-2,0.2-3.2c0.2-1,0.5-1.9,1-2.8c0.5-0.9,1.1-1.7,1.8-2.3
		s1.5-1.2,2.5-1.6c0.9-0.4,1.9-0.6,3-0.6c1,0,1.9,0.2,2.6,0.6c0.7,0.4,1.1,0.9,1.4,1.6h0l1.3-6.6h4.6l-3.8,18.6h-4.5L376.6,520.7z
		 M377.6,515.4c0.2-1.1,0.1-1.9-0.3-2.6c-0.4-0.6-1.2-1-2.3-1c-1.1,0-1.9,0.3-2.6,0.9c-0.7,0.6-1.1,1.5-1.4,2.6
		c-0.2,1.2-0.1,2.1,0.3,2.6c0.4,0.6,1.2,0.9,2.2,0.9c1.1,0,2-0.3,2.6-1C376.9,517.4,377.3,516.5,377.6,515.4z"/>
	<path class="st11" d="M385.7,512.8c0.3-1,0.8-1.8,1.3-2.5c0.6-0.6,1.2-1.1,2-1.4c0.7-0.3,1.5-0.5,2.4-0.7c0.9-0.1,1.7-0.2,2.7-0.2
		c1.1,0,2,0.1,2.9,0.2c0.9,0.1,1.6,0.4,2.2,0.7c0.6,0.3,1,0.8,1.3,1.4c0.3,0.6,0.3,1.4,0.1,2.4l-1.4,7c-0.1,0.5-0.2,1-0.2,1.4
		c0,0.2,0,0.4,0,0.5s0.1,0.4,0.1,0.6h-4.6c0-0.2-0.1-0.4,0-0.6c0-0.1,0-0.2,0-0.3c0-0.1,0-0.2,0-0.3c-0.8,0.7-1.7,1.2-2.7,1.5
		c-1,0.2-2,0.4-3.2,0.4c-3.8,0-5.4-1.4-4.9-4.3c0.2-0.8,0.4-1.4,0.8-2c0.3-0.5,0.7-1,1.2-1.3c0.5-0.3,1.1-0.6,1.7-0.8
		c0.7-0.2,1.4-0.3,2.3-0.4l4.7-0.4c0.6,0,1-0.1,1.2-0.3c0.2-0.2,0.3-0.4,0.4-0.8c0.1-0.5-0.1-0.9-0.5-1.1c-0.4-0.2-1.1-0.4-2.1-0.4
		c-0.9,0-1.5,0.1-2,0.4c-0.5,0.3-0.8,0.7-1.1,1.3H385.7z M395.4,515.9c-0.2,0.1-0.4,0.1-0.7,0.2c-0.3,0.1-0.7,0.1-1.1,0.2l-3.2,0.4
		c-0.5,0.1-0.8,0.2-1.1,0.4c-0.3,0.2-0.4,0.5-0.5,1c-0.1,0.5,0,1,0.3,1.2c0.3,0.3,0.8,0.4,1.4,0.4c1.3,0,2.4-0.3,3.2-0.8
		c0.8-0.5,1.3-1.3,1.5-2.3L395.4,515.9z"/>
	<path class="st11" d="M403.2,517.3h4.9l-1,5.1h-4.9L403.2,517.3z M405.9,504.1h5l-3.1,11.8h-3.7L405.9,504.1z"/>
</g>
</svg>
